<?xml version="1.0" standalone="no"?>
<!DOCTYPE svg PUBLIC "-//W3C//DTD SVG 1.1//EN" "http://www.w3.org/Graphics/SVG/1.1/DTD/svg11.dtd" >
<svg>
<metadata>
Created by FontForge 20090914 at Thu Jul 31 04:27:34 2014
 By www-data
&#194;&#169; 1990, 2002 Adobe Systems Incorporated. All rights reserved.
</metadata>
<defs>
<font id="HelveticaNeueLTStd-LtCn" horiz-adv-x="426" >
  <font-face 
    font-family="HelveticaNeueLT Std Lt Cn"
    font-weight="300"
    font-stretch="condensed"
    units-per-em="1000"
    panose-1="2 11 4 6 2 2 2 3 2 4"
    ascent="714"
    descent="-286"
    x-height="531"
    cap-height="714"
    bbox="-167 -204.001 1000 926.999"
    underline-thickness="50"
    underline-position="-50"
    unicode-range="U+000D-U+FB02"
  />
<missing-glyph horiz-adv-x="500" 
d="M0 700h500v-700h-500v700zM420 650h-340l170 -255zM450 95v510l-170 -255zM420 50l-170 255l-170 -255h340zM50 95l170 255l-170 255v-510z" />
    <glyph glyph-name="f_i" unicode="fi" 
d="M304 531h60v-531h-60v531zM304 714h60v-102h-60v102zM80 481l-72.9961 -0.000976562v50h73v63c0 18 1.33301 34.833 4 50.5s8 29.334 16 41.001s19.667 20.667 35 27s35.666 9.5 60.999 9.5c9.33301 0 16.666 -0.166992 21.999 -0.5s10.666 -1.16602 15.999 -2.49902v-50
c-8.66699 2 -18.334 3 -29.001 3c-22 0 -38.333 -5.33301 -49 -16s-16 -31.334 -16 -62.001v-63h94v-50h-94v-481h-60v481z" />
    <glyph glyph-name="f_l" unicode="fl" 
d="M304 714h60v-714h-60v714zM80 481l-72.9961 -0.000976562v50h73v63c0 18 1.33301 34.833 4 50.5s8 29.334 16 41.001s19.667 20.667 35 27s35.666 9.5 60.999 9.5c9.33301 0 16.666 -0.166992 21.999 -0.5s10.666 -1.16602 15.999 -2.49902v-50
c-8.66699 2 -18.334 3 -29.001 3c-22 0 -38.333 -5.33301 -49 -16s-16 -31.334 -16 -62.001v-63h94v-50h-94v-481h-60v481z" />
    <glyph glyph-name=".notdef" horiz-adv-x="500" 
d="M0 700h500v-700h-500v700zM420 650h-340l170 -255zM450 95v510l-170 -255zM420 50l-170 255l-170 -255h340zM50 95l170 255l-170 255v-510z" />
    <glyph glyph-name=".null" horiz-adv-x="0" 
 />
    <glyph glyph-name=".null" horiz-adv-x="0" 
 />
    <glyph glyph-name="nonmarkingreturn" unicode="&#xd;" horiz-adv-x="250" 
 />
    <glyph glyph-name="space" unicode=" " horiz-adv-x="240" 
 />
    <glyph glyph-name="exclam" unicode="!" horiz-adv-x="240" 
d="M86 714h68v-226l-12 -302h-44l-12 302v226zM86 102h68v-102h-68v102z" />
    <glyph glyph-name="quotedbl" unicode="&#x22;" horiz-adv-x="352" 
d="M71 714h60v-240h-60v240zM221 714h60v-240h-60v240z" />
    <glyph glyph-name="numbersign" unicode="#" horiz-adv-x="480" 
d="M169 270h122l20 156h-122zM3 270h116l20 156h-110v44h116l30 226h50l-30 -226h122l30 226h50l-30 -226h110v-44h-116l-20 -156h110v-44h-116l-30 -226h-50l30 226h-122l-30 -226h-50l30 226h-110v44z" />
    <glyph glyph-name="dollar" unicode="$" horiz-adv-x="480" 
d="M219 654c-37.333 -4 -65.667 -17.6699 -85 -41.0029s-29 -51 -29 -83c0 -20 3 -37.167 9 -51.5s14.167 -26.666 24.5 -36.999s22.333 -19.166 36 -26.499s28.5 -13.666 44.5 -18.999v258zM262.999 41.9971c36.667 4 66.5 17.333 89.5 40s34.5 56 34.5 100
c0 21.333 -3.33301 39.333 -10 54s-15.667 27.167 -27 37.5s-24.5 19.333 -39.5 27s-30.833 14.5 -47.5 20.5v-279zM28.999 214.997l64 0.00195312v-26c0 -42 10.5 -76.167 31.5 -102.5s52.5 -41.166 94.5 -44.499v294c-22 6.66699 -43.667 14.167 -65 22.5
s-40.333 19.333 -57 33s-30.167 31.167 -40.5 52.5s-15.5 48 -15.5 80c0 52 15.5 94.5 46.5 127.5s74.833 51.833 131.5 56.5v71h44v-71c58.667 -4.66699 101.5 -22.834 128.5 -54.501s40.5 -76.834 40.5 -135.501h-64c0 39.333 -8.5 70.833 -25.5 94.5
s-43.5 37.5 -79.5 41.5v-273c22.667 -7.33301 45.167 -15.333 67.5 -24s42.5 -19.667 60.5 -33s32.5 -30.5 43.5 -51.5s16.5 -47.833 16.5 -80.5c0 -62.667 -17 -111 -51 -145s-79.667 -53.667 -137 -59v-83h-44v83c-62 3.33301 -109.167 22.166 -141.5 56.499
s-48.5 84.5 -48.5 150.5v20z" />
    <glyph glyph-name="percent" unicode="%" horiz-adv-x="722" 
d="M107 524c0 -53.333 6.83301 -90 20.5 -110s30.834 -30 51.501 -30c21.333 0 38.666 10 51.999 30s20 56.667 20 110s-6.66699 90 -20 110s-30.666 30 -51.999 30c-20.667 0 -37.834 -10 -51.501 -30s-20.5 -56.667 -20.5 -110zM489 708h50l-307 -720h-50zM471 172
c0 -53.333 6.83301 -90 20.5 -110s30.834 -30 51.501 -30c21.333 0 38.666 10 51.999 30s20 56.667 20 110s-6.66699 90 -20 110s-30.666 30 -51.999 30c-20.667 0 -37.834 -10 -51.501 -30s-20.5 -56.667 -20.5 -110zM53 524c0 36 2.83301 65.833 8.5 89.5
s13.834 42.5 24.501 56.5s23.834 23.833 39.501 29.5s33.5 8.5 53.5 8.5s37.833 -2.83301 53.5 -8.5s28.834 -15.5 39.501 -29.5s18.834 -32.833 24.501 -56.5s8.5 -53.5 8.5 -89.5s-2.83301 -65.833 -8.5 -89.5s-13.834 -42.5 -24.501 -56.5s-23.834 -23.833 -39.501 -29.5
s-33.5 -8.5 -53.5 -8.5s-37.833 2.83301 -53.5 8.5s-28.834 15.5 -39.501 29.5s-18.834 32.833 -24.501 56.5s-8.5 53.5 -8.5 89.5zM417 172c0 36 2.83301 65.833 8.5 89.5s13.834 42.5 24.501 56.5s23.834 23.833 39.501 29.5s33.5 8.5 53.5 8.5s37.833 -2.83301 53.5 -8.5
s28.834 -15.5 39.501 -29.5s18.834 -32.833 24.501 -56.5s8.5 -53.5 8.5 -89.5s-2.83301 -65.833 -8.5 -89.5s-13.834 -42.5 -24.501 -56.5s-23.834 -23.833 -39.501 -29.5s-33.5 -8.5 -53.5 -8.5s-37.833 2.83301 -53.5 8.5s-28.834 15.5 -39.501 29.5
s-18.834 32.833 -24.501 56.5s-8.5 53.5 -8.5 89.5z" />
    <glyph glyph-name="ampersand" unicode="&#x26;" horiz-adv-x="537" 
d="M412 87c-20 -30 -45.6699 -53.999 -77.0029 -71.999s-69 -27 -113 -27c-30.667 0 -58.334 5 -83.001 15s-45.667 23.5 -63 40.5s-30.666 37 -39.999 60s-14 47.5 -14 73.5c0 38 9 71.833 27 101.5s43.333 57.167 76 82.5l59 45c-25.333 34 -45.333 64.833 -60 92.5
s-22 55.5 -22 83.5c0 21.333 3.83301 40.333 11.5 57s18.167 30.5 31.5 41.5s28.833 19.333 46.5 25s36.5 8.5 56.5 8.5c42 0 75.333 -12 100 -36s37 -56 37 -96c0 -14.667 -1.83301 -29 -5.5 -43s-10.167 -28.5 -19.5 -43.5s-22.166 -30.5 -38.499 -46.5
s-37.166 -33 -62.499 -51l154 -216c9.33301 22 15.833 44.5 19.5 67.5s5.83398 45.5 6.50098 67.5h60c0 -31.333 -4.33301 -62.833 -13 -94.5s-21 -61.834 -37 -90.501l94 -132h-68zM161.997 584.001c0 -19.333 6.16602 -41.5 18.499 -66.5s28.5 -51.167 48.5 -78.5
c20 15.333 36.167 29.5 48.5 42.5s22 25.5 29 37.5s11.833 23.333 14.5 34s4 21 4 31c0 23.333 -7.66699 42.5 -23 57.5s-34.666 22.5 -57.999 22.5s-42.833 -7.5 -58.5 -22.5s-23.5 -34.167 -23.5 -57.5zM213.996 366.001c-25.333 -17.333 -46.165 -34 -62.498 -50
s-29.333 -31.5 -39 -46.5s-16.5 -29.5 -20.5 -43.5s-6 -28 -6 -42c0 -21.333 3.83301 -40.666 11.5 -57.999s18.167 -32.333 31.5 -45s28.666 -22.334 45.999 -29.001s36 -10 56 -10c29.333 0 58.166 8 86.499 24s49.5 38 63.5 66z" />
    <glyph glyph-name="quotesingle" unicode="'" horiz-adv-x="240" 
d="M90 714h60v-240h-60v240z" />
    <glyph glyph-name="parenleft" unicode="(" horiz-adv-x="222" 
d="M230 714c-39.333 -68.667 -68.5 -141 -87.5 -217s-28.5 -153.333 -28.5 -232s9.5 -156 28.5 -232s48.167 -148.333 87.5 -217h-43c-49.333 80.667 -83.833 158.167 -103.5 232.5s-29.5 146.5 -29.5 216.5s9.83301 142.167 29.5 216.5s54.167 151.833 103.5 232.5h43z" />
    <glyph glyph-name="parenright" unicode=")" horiz-adv-x="222" 
d="M-8 -184c39.333 68.667 68.5 141 87.5 217s28.5 153.333 28.5 232s-9.5 156 -28.5 232s-48.167 148.333 -87.5 217h43c49.333 -80.667 83.833 -158.167 103.5 -232.5s29.5 -146.5 29.5 -216.5s-9.83301 -142.167 -29.5 -216.5s-54.167 -151.833 -103.5 -232.5h-43z" />
    <glyph glyph-name="asterisk" unicode="*" horiz-adv-x="334" 
d="M189 714v-111l106 34l13 -42l-105 -34l65 -90l-36 -26l-65 90l-65 -90l-36 26l65 90l-105 34l13 42l106 -34v111h44z" />
    <glyph glyph-name="plus" unicode="+" horiz-adv-x="600" 
d="M275 228h-228v50h228v228h50v-228h228v-50h-228v-228h-50v228z" />
    <glyph glyph-name="comma" unicode="," horiz-adv-x="240" 
d="M86 102l67.999 -0.000976562v-102c0 -14.667 -1 -29 -3 -43s-5.66699 -27.167 -11 -39.5s-12.833 -23.166 -22.5 -32.499s-22.167 -17 -37.5 -23v40c13.333 8 22.333 19.5 27 34.5s7.33398 36.167 8.00098 63.5h-29v102z" />
    <glyph glyph-name="hyphen" unicode="-" horiz-adv-x="333" 
d="M275 311v-54h-217v54h217z" />
    <glyph glyph-name="period" unicode="." horiz-adv-x="240" 
d="M86 102h68v-102h-68v102z" />
    <glyph glyph-name="slash" unicode="/" horiz-adv-x="278" 
d="M288 726l-244 -738h-54l244 738h54z" />
    <glyph glyph-name="zero" unicode="0" horiz-adv-x="480" 
d="M105 348c0 -56.667 2.5 -104.667 7.5 -144s12.833 -71.333 23.5 -96s24.667 -42.5 42 -53.5s38 -16.5 62 -16.5s44.667 5.5 62 16.5s31.333 28.833 42 53.5s18.5 56.667 23.5 96s7.5 87.333 7.5 144s-2.5 104.667 -7.5 144s-12.833 71.333 -23.5 96
s-24.667 42.5 -42 53.5s-38 16.5 -62 16.5s-44.667 -5.5 -62 -16.5s-31.333 -28.833 -42 -53.5s-18.5 -56.667 -23.5 -96s-7.5 -87.333 -7.5 -144zM41 348c0 52 2.83301 100 8.5 144s15.834 82 30.501 114s35 57 61 75s59 27 99 27s73 -9 99 -27s46.333 -43 61 -75
s24.834 -70 30.501 -114s8.5 -92 8.5 -144s-2.83301 -100 -8.5 -144s-15.834 -82 -30.501 -114s-35 -57 -61 -75s-59 -27 -99 -27s-73 9 -99 27s-46.333 43 -61 75s-24.834 70 -30.501 114s-8.5 92 -8.5 144z" />
    <glyph glyph-name="one" unicode="1" horiz-adv-x="480" 
d="M230 542l-162 -0.000976562v44c60 0.666992 103.833 11.834 131.5 33.501s42.5 51.167 44.5 88.5h46v-708h-60v542z" />
    <glyph glyph-name="two" unicode="2" horiz-adv-x="480" 
d="M47 486c1.33301 68.667 18.332 122.829 50.999 162.496s82.334 59.5 149.001 59.5c24 0 47 -3.66699 69 -11s41.5 -18.833 58.5 -34.5s30.5 -35.5 40.5 -59.5s15 -53 15 -87c0 -21.333 -1.83301 -41.166 -5.5 -59.499s-10 -36.166 -19 -53.499s-21 -34.5 -36 -51.5
s-33.833 -34.833 -56.5 -53.5l-77 -63c-36.667 -30.667 -65.167 -59.167 -85.5 -85.5s-33.166 -58.166 -38.499 -95.499h324v-54h-392c0 29.333 3.33301 56.333 10 81s16.167 47.834 28.5 69.501s27.666 42.5 45.999 62.5s39.5 40 63.5 60l76 64c36 30 61.333 58.333 76 85
s22 57 22 91c0 47.333 -11.667 83.333 -35 108s-53.333 37 -90 37c-40.667 0 -72 -13.833 -94 -41.5s-34 -71.167 -36 -130.5h-64z" />
    <glyph glyph-name="three" unicode="3" horiz-adv-x="480" 
d="M187 393l32.999 -0.000976562c42.667 0 75.667 11.5 99 34.5s35 55.5 35 97.5c0 41.333 -9.83301 73.833 -29.5 97.5s-48.834 35.5 -87.501 35.5c-36 0 -65.667 -11.833 -89 -35.5s-35.333 -60.5 -36 -110.5h-64c0 59.333 15.833 106.833 47.5 142.5
s78.834 53.5 141.501 53.5c54.667 0 98.5 -15.5 131.5 -46.5s49.5 -73.833 49.5 -128.5c0 -39.333 -9.33301 -73.5 -28 -102.5s-47.334 -48.167 -86.001 -57.5v-2c42 -6 75 -24.5 99 -55.5s36 -68.5 36 -112.5c0 -32 -4.33301 -61.167 -13 -87.5s-21.5 -49 -38.5 -68
s-38.167 -33.667 -63.5 -44s-54.666 -15.5 -87.999 -15.5c-61.333 0 -109 16.833 -143 50.5s-52.333 83.834 -55 150.501h64c0 -20.667 2.66699 -40.167 8 -58.5s13.5 -34.333 24.5 -48s25 -24.5 42 -32.5s36.833 -12 59.5 -12c18 0 35.333 2.83301 52 8.5s31.5 15 44.5 28
s23.333 29.833 31 50.5s11.5 46 11.5 76c0 46 -12.667 81.167 -38 105.5s-59.666 36.5 -102.999 36.5h-47v50z" />
    <glyph glyph-name="four" unicode="4" horiz-adv-x="480" 
d="M305 182h-273v60l273 466h60v-472h83v-54h-83v-182h-60v182zM305 236v370h-2l-217 -370h219z" />
    <glyph glyph-name="five" unicode="5" horiz-adv-x="480" 
d="M406 696l-0.000976562 -54.001h-262l-31 -247l2 -2c13.333 26 33 44.5 59 55.5s52 16.5 78 16.5c27.333 0 52.5 -4.83301 75.5 -14.5s42.667 -24.167 59 -43.5s29.166 -43.666 38.499 -72.999s14 -63.666 14 -102.999c0 -35.333 -4.5 -67.833 -13.5 -97.5
s-22.167 -55.334 -39.5 -77.001s-39.166 -38.5 -65.499 -50.5s-56.833 -18 -91.5 -18c-27.333 0 -52.5 4.16699 -75.5 12.5s-42.833 20.833 -59.5 37.5s-29.667 37 -39 61s-14 51.333 -14 82h64c0 -20 2.83301 -38.667 8.5 -56s14 -32.5 25 -45.5s24.667 -23.167 41 -30.5
s35.166 -11 56.499 -11c42.667 0 76.5 17.167 101.5 51.5s37.5 84.833 37.5 151.5c0 24.667 -2.66699 47.5 -8 68.5s-13.666 39.333 -24.999 55s-25.666 28 -42.999 37s-38 13.5 -62 13.5c-26.667 0 -51.167 -6.5 -73.5 -19.5s-38.5 -33.833 -48.5 -62.5h-60l41 363h310z
" />
    <glyph glyph-name="six" unicode="6" horiz-adv-x="480" 
d="M363 542c-1.33301 34.667 -11.5 62.668 -30.5 84.001s-46.167 32 -81.5 32c-24.667 0 -46.167 -5.83301 -64.5 -17.5s-33.666 -30.334 -45.999 -56.001s-21.666 -58.834 -27.999 -99.501s-9.83301 -90.334 -10.5 -149.001l2 -2c11.333 36.667 30 65.167 56 85.5
s58 30.5 96 30.5c30.667 0 57.667 -5.33301 81 -16s42.666 -25.667 57.999 -45s27 -42.5 35 -69.5s12 -56.833 12 -89.5c0 -33.333 -3.83301 -64.666 -11.5 -93.999s-19.667 -55 -36 -77s-36.833 -39.333 -61.5 -52s-54 -19 -88 -19c-40 0 -73.333 7.33301 -100 22
s-47.834 36.334 -63.501 65.001s-26.834 64.167 -33.501 106.5s-10 91.5 -10 147.5c0 58 3.33301 110.333 10 157s18.167 86.5 34.5 119.5s38.333 58.333 66 76s62.834 26.5 105.501 26.5c56 0 98.667 -15.5 128 -46.5s44.333 -70.833 45 -119.5h-64zM114 219.001
c0 -22.667 2.33301 -44.834 7 -66.501s12.167 -41 22.5 -58s24 -30.667 41 -41s37.5 -15.5 61.5 -15.5c24.667 0 45.334 5.16699 62.001 15.5s30.167 24 40.5 41s17.833 36.333 22.5 58s7 43.834 7 66.501s-2.33301 44.834 -7 66.501s-12.167 41 -22.5 58
s-23.833 30.667 -40.5 41s-37.334 15.5 -62.001 15.5c-24 0 -44.5 -5.16699 -61.5 -15.5s-30.667 -24 -41 -41s-17.833 -36.333 -22.5 -58s-7 -43.834 -7 -66.501z" />
    <glyph glyph-name="seven" unicode="7" horiz-adv-x="480" 
d="M41 696l397.998 0.00292969v-54c-38 -46.667 -71.833 -97.334 -101.5 -152.001s-55.167 -110.334 -76.5 -167.001s-38.333 -112.667 -51 -168s-21 -107 -25 -155h-68c2.66699 48.667 11.334 101.667 26.001 159s33.667 114.666 57 171.999s50.333 113 81 167
s63.334 102 98.001 144h-338v54z" />
    <glyph glyph-name="eight" unicode="8" horiz-adv-x="480" 
d="M105 195c0 -21.333 2.83301 -41.5 8.5 -60.5s14.167 -35.667 25.5 -50s25.333 -25.666 42 -33.999s36.334 -12.5 59.001 -12.5s42.334 4.16699 59.001 12.5s30.667 19.666 42 33.999s19.833 31 25.5 50s8.5 39.167 8.5 60.5s-2.83301 41.666 -8.5 60.999
s-14.167 36.166 -25.5 50.499s-25.333 25.666 -42 33.999s-36.334 12.5 -59.001 12.5s-42.334 -4.16699 -59.001 -12.5s-30.667 -19.666 -42 -33.999s-19.833 -31.166 -25.5 -50.499s-8.5 -39.666 -8.5 -60.999zM41 200c0 20.667 2.66602 40.999 7.99902 60.999
s13.166 38 23.499 54s23.5 29.5 39.5 40.5s35 17.5 57 19.5v2c-17.333 4.66699 -32.666 12.167 -45.999 22.5s-24.5 22.666 -33.5 36.999s-15.833 29.833 -20.5 46.5s-7 33.334 -7 50.001c0 29.333 4.5 54.833 13.5 76.5s21.333 39.834 37 54.501s34.334 25.667 56.001 33
s45.5 11 71.5 11c52 0 94.667 -14.667 128 -44s50 -73 50 -131c0 -16.667 -2.16699 -33.334 -6.5 -50.001s-11 -32.167 -20 -46.5s-20.167 -26.666 -33.5 -36.999s-29 -17.833 -47 -22.5v-2c22 -2 41 -8.5 57 -19.5s29.167 -24.5 39.5 -40.5s18.166 -34 23.499 -54
s8 -40.333 8 -61c0 -33.333 -4.83301 -63.166 -14.5 -89.499s-23.167 -48.5 -40.5 -66.5s-38.166 -31.833 -62.499 -41.5s-51.5 -14.5 -81.5 -14.5c-29.333 0 -56.166 4.83301 -80.499 14.5s-45.333 23.5 -63 41.5s-31.334 40.167 -41.001 66.5s-14.5 56.166 -14.5 89.499z
M125.999 529.999c0 -38 9.5 -68.667 28.5 -92s47.5 -35 85.5 -35c38.667 0 67.334 11.667 86.001 35s28 54 28 92s-9.33301 68.833 -28 92.5s-47.334 35.5 -86.001 35.5c-38 0 -66.5 -11.833 -85.5 -35.5s-28.5 -54.5 -28.5 -92.5z" />
    <glyph glyph-name="nine" unicode="9" horiz-adv-x="480" 
d="M117 154c1.33301 -34.667 11.5 -62.668 30.5 -84.001s46.167 -32 81.5 -32c24.667 0 46.167 5.83301 64.5 17.5s33.666 30.334 45.999 56.001s21.666 58.834 27.999 99.501s9.83301 90.334 10.5 149.001l-2 2c-11.333 -36.667 -30 -65.167 -56 -85.5s-58 -30.5 -96 -30.5
c-30.667 0 -57.667 5.33301 -81 16s-42.666 25.667 -57.999 45s-27 42.5 -35 69.5s-12 56.833 -12 89.5c0 33.333 3.83301 64.666 11.5 93.999s19.667 55 36 77s36.833 39.333 61.5 52s54 19 88 19c40 0 73.333 -7.33301 100 -22s47.834 -36.334 63.501 -65.001
s26.834 -64.167 33.501 -106.5s10 -91.5 10 -147.5c0 -58 -3.33301 -110.333 -10 -157s-18.167 -86.5 -34.5 -119.5s-38.333 -58.333 -66 -76s-62.834 -26.5 -105.501 -26.5c-56 0 -98.5 15.5 -127.5 46.5s-44.167 70.833 -45.5 119.5h64zM102 476.999
c0 -22.667 2.33301 -44.834 7 -66.501s12.167 -41 22.5 -58s23.833 -30.667 40.5 -41s37.334 -15.5 62.001 -15.5c24 0 44.5 5.16699 61.5 15.5s30.667 24 41 41s17.833 36.333 22.5 58s7 43.834 7 66.501s-2.33301 44.834 -7 66.501s-12.167 41 -22.5 58s-24 30.667 -41 41
s-37.5 15.5 -61.5 15.5c-24.667 0 -45.334 -5.16699 -62.001 -15.5s-30.167 -24 -40.5 -41s-17.833 -36.333 -22.5 -58s-7 -43.834 -7 -66.501z" />
    <glyph glyph-name="colon" unicode=":" horiz-adv-x="240" 
d="M86 501h68v-102h-68v102zM86 102h68v-102h-68v102z" />
    <glyph glyph-name="semicolon" unicode=";" horiz-adv-x="240" 
d="M86 102l67.999 -0.000976562v-102c0 -14.667 -1 -29 -3 -43s-5.66699 -27.167 -11 -39.5s-12.833 -23.166 -22.5 -32.499s-22.167 -17 -37.5 -23v40c13.333 8 22.333 19.5 27 34.5s7.33398 36.167 8.00098 63.5h-29v102zM85.999 500.999h68v-102h-68v102z" />
    <glyph glyph-name="less" unicode="&#x3c;" horiz-adv-x="600" 
d="M47 280l506 234v-54l-446 -207l446 -207v-54l-506 234v54z" />
    <glyph glyph-name="equal" unicode="=" horiz-adv-x="600" 
d="M47 375h506v-50h-506v50zM47 181h506v-50h-506v50z" />
    <glyph glyph-name="greater" unicode="&#x3e;" horiz-adv-x="600" 
d="M47 46l446 207l-446 207v54l506 -234v-54l-506 -234v54z" />
    <glyph glyph-name="question" unicode="?" 
d="M168 185l-0.00195312 35.002c0 18.667 1 35 3 49s5.5 27 10.5 39s11.833 23.667 20.5 35s19.334 23.666 32.001 36.999l42 45c19.333 20.667 32.833 42.167 40.5 64.5s11.5 43.166 11.5 62.499c0 36 -10.167 65.667 -30.5 89s-47.5 35 -81.5 35
c-43.333 0 -75.5 -14.5 -96.5 -43.5s-31.5 -70.5 -31.5 -124.5h-64c0 31.333 3.83301 60.166 11.5 86.499s19.334 49.333 35.001 69s35.167 35 58.5 46s51 16.5 83 16.5c56 0 100 -16.167 132 -48.5s48 -74.5 48 -126.5c0 -26 -4.33301 -51.667 -13 -77s-26 -52 -52 -80
l-43 -46c-20.667 -21.333 -35.167 -41.666 -43.5 -60.999s-12.5 -44 -12.5 -74v-28h-60zM163.998 102.002h68v-102h-68v102z" />
    <glyph glyph-name="at" unicode="@" horiz-adv-x="800" 
d="M243 288c0 -30.667 6.83496 -55.333 20.502 -74s35.5 -28 65.5 -28c26.667 0 51.334 8.33301 74.001 25s42.167 37.334 58.5 62.001s29.166 51.167 38.499 79.5s14 53.833 14 76.5c0 32.667 -6.83301 56.834 -20.5 72.501s-35.5 23.5 -65.5 23.5
c-26.667 0 -51.334 -7.83301 -74.001 -23.5s-42.334 -35.334 -59.001 -59.001s-29.5 -49.334 -38.5 -77.001s-13.5 -53.5 -13.5 -77.5zM572.002 558.001l57.001 -0.00195312l-102 -294c-3.33301 -10.667 -6.33301 -21.167 -9 -31.5s-4 -19.5 -4 -27.5
c0 -16.667 9 -25 27 -25c22 0 43.667 7.66699 65 23s40.333 35 57 59s30.167 50.167 40.5 78.5s15.5 55.5 15.5 81.5c0 39.333 -8.33301 75 -25 107s-38.834 59.333 -66.501 82s-59.5 40.167 -95.5 52.5s-73.333 18.5 -112 18.5c-49.333 0 -94.666 -8.83301 -135.999 -26.5
s-77 -41.334 -107 -71.001s-53.5 -64.167 -70.5 -103.5s-25.5 -80.666 -25.5 -123.999c0 -44.667 8.83301 -86.834 26.5 -126.501s41.667 -74.167 72 -103.5s66.166 -52.5 107.499 -69.5s85.666 -25.5 132.999 -25.5c27.333 0 54.333 3.16699 81 9.5s52.167 15.5 76.5 27.5
s46.666 26.5 66.999 43.5s37.166 36.167 50.499 57.5h60c-16.667 -28 -37.167 -53.167 -61.5 -75.5s-51.166 -41.5 -80.499 -57.5s-60.333 -28.167 -93 -36.5s-66 -12.5 -100 -12.5c-55.333 0 -106.666 9.83301 -153.999 29.5s-88.5 46.167 -123.5 79.5
s-62.333 72.333 -82 117s-29.5 92.334 -29.5 143.001c0 51.333 10.167 99.333 30.5 144s48.166 83.667 83.499 117s76.666 59.666 123.999 78.999s97.666 29 150.999 29c48.667 0 94.167 -7.66699 136.5 -23s79.333 -36.666 111 -63.999s56.5 -59.666 74.5 -96.999
s27 -78.333 27 -123c0 -38.667 -7.33301 -75.167 -22 -109.5s-33.334 -64.333 -56.001 -90s-48 -46 -76 -61s-55.667 -22.5 -83 -22.5c-19.333 0 -35.666 5.5 -48.999 16.5s-19.666 28.167 -18.999 51.5h-2c-23.333 -22.667 -45.666 -39.667 -66.999 -51s-46 -17 -74 -17
c-39.333 0 -71.166 13 -95.499 39s-36.5 62 -36.5 108c0 34.667 6 69.334 18 104.001s28.833 66 50.5 94s47.334 50.667 77.001 68s62.5 26 98.5 26c23.333 0 45 -6.16699 65 -18.5s35.667 -33.833 47 -64.5h2z" />
    <glyph glyph-name="A" unicode="A" horiz-adv-x="500" 
d="M361 262l-110 402h-2l-110 -402h222zM210 714h80l211 -714h-68l-58 208h-250l-58 -208h-68z" />
    <glyph glyph-name="B" unicode="B" horiz-adv-x="500" 
d="M120 400h101c55.333 0 95.833 11.167 121.5 33.5s38.5 54.5 38.5 96.5c0 48 -12.333 81.667 -37 101s-62 29 -112 29h-112v-260zM120 54h119c110 0 165 48.667 165 146s-55 146 -165 146h-119v-292zM56 714l197.001 0.00292969c34.667 0 64.167 -4.33301 88.5 -13
s44.166 -20.834 59.499 -36.501s26.5 -34.5 33.5 -56.5s10.5 -46.333 10.5 -73c0 -17.333 -2.33301 -34.333 -7 -51s-11.667 -32 -21 -46s-20.833 -26 -34.5 -36s-29.5 -17.333 -47.5 -22v-2c44 -8.66699 77.167 -28.834 99.5 -60.501s33.5 -70.834 33.5 -117.501
c0 -62.667 -19 -111.667 -57 -147s-91 -53 -159 -53h-196v714z" />
    <glyph glyph-name="C" unicode="C" horiz-adv-x="519" 
d="M490 242c-4.66699 -82 -25.001 -144.833 -61.001 -188.5s-86.333 -65.5 -151 -65.5c-72.667 0 -128.834 29.5 -168.501 88.5s-59.5 152.5 -59.5 280.5s19.833 221.5 59.5 280.5s95.834 88.5 168.501 88.5c36 0 67 -6 93 -18s47.333 -28 64 -48s28.834 -43.333 36.501 -70
s11.5 -54.667 11.5 -84h-64c0 48.667 -12 88.5 -36 119.5s-59 46.5 -105 46.5c-25.333 0 -48.166 -5.5 -68.499 -16.5s-37.5 -29 -51.5 -54s-24.833 -57.5 -32.5 -97.5s-11.5 -89 -11.5 -147s3.83301 -107 11.5 -147s18.5 -72.5 32.5 -97.5s31.167 -43 51.5 -54
s43.166 -16.5 68.499 -16.5c45.333 0 80.5 17.833 105.5 53.5s39.167 84.5 42.5 146.5h64z" />
    <glyph glyph-name="D" unicode="D" horiz-adv-x="537" 
d="M56 714h172c52 0 94.667 -7.66699 128 -23s59.833 -38 79.5 -68s33.167 -67.333 40.5 -112s11 -96 11 -154s-3.66699 -109.333 -11 -154s-20.833 -82 -40.5 -112s-46.167 -52.667 -79.5 -68s-76 -23 -128 -23h-172v714zM120 54h104c35.333 0 65.5 4.83301 90.5 14.5
s45.5 26.167 61.5 49.5s27.833 54.333 35.5 93s11.5 87 11.5 145c0 58.667 -3.83301 107.5 -11.5 146.5s-19.5 70.167 -35.5 93.5s-36.5 39.833 -61.5 49.5s-55.167 14.5 -90.5 14.5h-104v-606z" />
    <glyph glyph-name="E" unicode="E" horiz-adv-x="444" 
d="M56 714h354v-54h-290v-260h271v-54h-271v-292h299v-54h-363v714z" />
    <glyph glyph-name="F" unicode="F" 
d="M56 714h354v-54h-290v-260h271v-54h-271v-346h-64v714z" />
    <glyph glyph-name="G" unicode="G" horiz-adv-x="537" 
d="M258 310l0.000976562 54.0039h229v-364h-50v118h-2c-11.333 -40 -31.333 -71.667 -60 -95s-61 -35 -97 -35c-72.667 0 -128.834 29.5 -168.501 88.5s-59.5 152.5 -59.5 280.5s19.833 221.5 59.5 280.5s95.834 88.5 168.501 88.5c34 0 63.5 -5.33301 88.5 -16
s45.667 -25.334 62 -44.001s29 -41 38 -67s14.5 -54.333 16.5 -85h-64c0 21.333 -3 41.666 -9 60.999s-14.833 36.166 -26.5 50.499s-26.334 25.666 -44.001 33.999s-38.167 12.5 -61.5 12.5c-25.333 0 -48.166 -5.5 -68.499 -16.5s-37.5 -29 -51.5 -54
s-24.833 -57.5 -32.5 -97.5s-11.5 -89 -11.5 -147s3.83301 -107 11.5 -147s18.5 -72.5 32.5 -97.5s31.167 -43 51.5 -54s43.166 -16.5 68.499 -16.5c48 0 84.833 21.167 110.5 63.5s38.5 105.5 38.5 189.5v15h-169z" />
    <glyph glyph-name="H" unicode="H" horiz-adv-x="519" 
d="M399 356h-279v-356h-64v714h64v-304h279v304h64v-714h-64v356z" />
    <glyph glyph-name="I" unicode="I" horiz-adv-x="184" 
d="M60 714h64v-714h-64v714z" />
    <glyph glyph-name="J" unicode="J" horiz-adv-x="407" 
d="M19 209l64.001 0.00195312v-17c0 -48.667 7 -85.834 21 -111.501s38.667 -38.5 74 -38.5c17.333 0 32.833 2.16699 46.5 6.5s25.167 12 34.5 23s16.333 25.667 21 44s7 41.833 7 70.5v528h64v-535c0 -62 -14.167 -109.333 -42.5 -142s-70.833 -49 -127.5 -49
c-50.667 0 -90.334 14.667 -119.001 44s-43 78.666 -43 147.999v29z" />
    <glyph glyph-name="K" unicode="K" horiz-adv-x="480" 
d="M56 714h64v-374h2l273 374h68l-218 -298l242 -416h-68l-214 362l-85 -112v-250h-64v714z" />
    <glyph glyph-name="L" unicode="L" 
d="M56 714h64v-660h296v-54h-360v714z" />
    <glyph glyph-name="M" unicode="M" horiz-adv-x="686" 
d="M62 714h111l172 -634h2l172 634h105v-714h-64v654h-2l-185 -654h-60l-185 654h-2v-654h-64v714z" />
    <glyph glyph-name="N" unicode="N" horiz-adv-x="537" 
d="M56 714h86l273 -622h2v622h64v-714h-86l-273 622h-2v-622h-64v714z" />
    <glyph glyph-name="O" unicode="O" horiz-adv-x="556" 
d="M50 357c0 128 19.833 221.5 59.5 280.5s95.834 88.5 168.501 88.5c73.333 0 129.666 -29.5 168.999 -88.5s59 -152.5 59 -280.5s-19.667 -221.5 -59 -280.5s-95.666 -88.5 -168.999 -88.5c-72.667 0 -128.834 29.5 -168.501 88.5s-59.5 152.5 -59.5 280.5zM114 357
c0 -58 3.83301 -107 11.5 -147s18.5 -72.5 32.5 -97.5s31.167 -43 51.5 -54s43.166 -16.5 68.499 -16.5s48.166 5.5 68.499 16.5s37.5 29 51.5 54s24.833 57.5 32.5 97.5s11.5 89 11.5 147s-3.83301 107 -11.5 147s-18.5 72.5 -32.5 97.5s-31.167 43 -51.5 54
s-43.166 16.5 -68.499 16.5s-48.166 -5.5 -68.499 -16.5s-37.5 -29 -51.5 -54s-24.833 -57.5 -32.5 -97.5s-11.5 -89 -11.5 -147z" />
    <glyph glyph-name="P" unicode="P" horiz-adv-x="480" 
d="M120 364h109.001c21.333 0 41.166 2.5 59.499 7.5s34.333 13.333 48 25s24.5 27 32.5 46s12 42.167 12 69.5c0 54 -13 92.167 -39 114.5s-63.667 33.5 -113 33.5h-109v-296zM56.001 714l192.999 0.000976562c34.667 0 64.334 -4.83301 89.001 -14.5
s45 -23.334 61 -41.001s27.667 -39 35 -64s11 -52.5 11 -82.5c0 -27.333 -3.66699 -53.333 -11 -78s-19.5 -46.167 -36.5 -64.5s-39.5 -32.833 -67.5 -43.5s-62.333 -16 -103 -16h-107v-310h-64v714z" />
    <glyph glyph-name="Q" unicode="Q" horiz-adv-x="556" 
d="M407 32c-34 -29.333 -76.999 -44.002 -128.999 -44.002c-72.667 0 -128.834 29.5 -168.501 88.5s-59.5 152.5 -59.5 280.5s19.833 221.5 59.5 280.5s95.834 88.5 168.501 88.5c73.333 0 129.666 -29.5 168.999 -88.5s59 -152.5 59 -280.5
c0 -67.333 -5.5 -124.666 -16.5 -171.999s-27.167 -85.666 -48.5 -114.999l73 -70l-35 -38zM287.001 151.998l34.999 37.999l77 -75c14 25.333 24.667 57.833 32 97.5s11 87.834 11 144.501c0 58 -3.83301 107 -11.5 147s-18.5 72.5 -32.5 97.5s-31.167 43 -51.5 54
s-43.166 16.5 -68.499 16.5s-48.166 -5.5 -68.499 -16.5s-37.5 -29 -51.5 -54s-24.833 -57.5 -32.5 -97.5s-11.5 -89 -11.5 -147s3.83301 -107 11.5 -147s18.5 -72.5 32.5 -97.5s31.167 -43 51.5 -54s43.166 -16.5 68.499 -16.5c17.333 0 33.333 2.5 48 7.5
s28.667 13.167 42 24.5z" />
    <glyph glyph-name="R" unicode="R" horiz-adv-x="500" 
d="M56 714l212.997 0.000976562c60 0 105.833 -15.833 137.5 -47.5s47.5 -75.5 47.5 -131.5c0 -21.333 -2.33301 -42 -7 -62s-12 -38 -22 -54s-23.167 -29.667 -39.5 -41s-36.5 -19.333 -60.5 -24v-2c44.667 -4 75.834 -19.333 93.501 -46s27.167 -67.667 28.5 -123l2 -78
c0.666992 -19.333 2.66699 -38.166 6 -56.499s11.333 -34.5 24 -48.5h-75c-7.33301 12.667 -12.166 27.667 -14.499 45s-3.83301 35.666 -4.5 54.999l-2 60c-0.666992 31.333 -3.16699 57.666 -7.5 78.999s-11.666 38.5 -21.999 51.5s-24.5 22.167 -42.5 27.5
s-41.333 8 -70 8h-121v-326h-64v714zM119.997 380.001h109.999c50.667 0 90 11.5 118 34.5s42 58.167 42 105.5c0 22 -2.5 41.667 -7.5 59s-13.5 32 -25.5 44s-27.667 21.167 -47 27.5s-43.666 9.5 -72.999 9.5h-117v-280z" />
    <glyph glyph-name="S" unicode="S" horiz-adv-x="480" 
d="M369 531c0 44 -10.3369 78.5029 -31.0039 103.503s-53 37.5 -97 37.5c-43.333 0 -76.666 -12.5 -99.999 -37.5s-35 -55.167 -35 -90.5s8.5 -62.666 25.5 -81.999s38.333 -34.833 64 -46.5s53.5 -21.834 83.5 -30.501s57.833 -20 83.5 -34s47 -32.667 64 -56
s25.5 -56 25.5 -98c0 -68.667 -19.667 -120.667 -59 -156s-91.666 -53 -156.999 -53c-67.333 0 -118.833 17.667 -154.5 53s-53.5 88.333 -53.5 159v21h64v-27c0 -46 11.833 -82.833 35.5 -110.5s59.167 -41.5 106.5 -41.5c45.333 0 82.333 11.667 111 35s43 60 43 110
c0 35.333 -8.5 62.5 -25.5 81.5s-38.333 34.333 -64 46s-53.5 21.667 -83.5 30s-57.833 19.5 -83.5 33.5s-47 33.167 -64 57.5s-25.5 58.166 -25.5 101.499c0 28 4.5 53.667 13.5 77s21.833 43.166 38.5 59.499s37.334 29.166 62.001 38.499s52.334 14 83.001 14
c66.667 0 115.667 -16.5 147 -49.5s47 -81.5 47 -145.5h-64z" />
    <glyph glyph-name="T" unicode="T" horiz-adv-x="444" 
d="M190 660h-184v54h432v-54h-184v-660h-64v660z" />
    <glyph glyph-name="U" unicode="U" horiz-adv-x="500" 
d="M46 714h63.998v-513c0 -106 46.667 -159 140 -159s140 53 140 159v513h64v-514c0 -74.667 -17.667 -128.667 -53 -162s-85.666 -50 -150.999 -50s-115.666 16.667 -150.999 50s-53 87.333 -53 162v514z" />
    <glyph glyph-name="V" unicode="V" horiz-adv-x="462" 
d="M3 714h68l159 -646h2l159 646h68l-188 -714h-80z" />
    <glyph glyph-name="W" unicode="W" horiz-adv-x="722" 
d="M11 714h64l125 -628h2l122 628h74l122 -628h2l125 628h64l-151 -714h-80l-118 628h-2l-118 -628h-80z" />
    <glyph glyph-name="X" unicode="X" horiz-adv-x="462" 
d="M229 307l-166 -307h-64l196 364l-183 350h68l152 -290l154 290h64l-184 -350l197 -364h-68z" />
    <glyph glyph-name="Y" unicode="Y" horiz-adv-x="444" 
d="M190 286l-193 428h68l157 -356l157 356h68l-193 -428v-286h-64v286z" />
    <glyph glyph-name="Z" unicode="Z" horiz-adv-x="462" 
d="M22 60l348 600h-328v54h393v-60l-342 -600h347v-54h-418v60z" />
    <glyph glyph-name="bracketleft" unicode="[" horiz-adv-x="241" 
d="M83 714h158v-50h-98v-798h98v-50h-158v898z" />
    <glyph glyph-name="backslash" unicode="\" horiz-adv-x="278" 
d="M44 726l244 -738h-54l-244 738h54z" />
    <glyph glyph-name="bracketright" unicode="]" horiz-adv-x="241" 
d="M0 -134h98v798h-98v50h158v-898h-158v50z" />
    <glyph glyph-name="asciicircum" unicode="^" horiz-adv-x="600" 
d="M300 636l-202 -393h-54l231 453h50l231 -453h-54z" />
    <glyph glyph-name="underscore" unicode="_" horiz-adv-x="500" 
d="M0 -75h500v-50h-500v50z" />
    <glyph glyph-name="grave" unicode="`" horiz-adv-x="186" 
d="M61 738l75 -141h-48l-98 141h71z" />
    <glyph glyph-name="a" unicode="a" 
d="M47 373c0 54.667 13.167 96.667 39.5 126s67.833 44 124.5 44c55.333 0 94.166 -13 116.499 -39s33.5 -60 33.5 -102v-314c0 -29.333 10.333 -44 31 -44h17v-44c-10.667 -4 -20 -6 -28 -6c-23.333 0 -42 4 -56 12s-21 26 -21 54v18h-2
c-12 -35.333 -30.333 -59.166 -55 -71.499s-52 -18.5 -82 -18.5c-46.667 0 -80.834 13.5 -102.501 40.5s-32.5 63.5 -32.5 109.5c0 35.333 8.33301 66 25 92s44 44.333 82 55l113 32c10.667 3.33301 19.334 6.5 26.001 9.5s11.834 7.5 15.501 13.5s6.16699 13.833 7.5 23.5
s2 22.167 2 37.5c0 34 -8.5 57.833 -25.5 71.5s-39.167 20.5 -66.5 20.5c-36 0 -62 -10.333 -78 -31s-24 -50.334 -24 -89.001h-60zM301 300l-2.00098 -0.00195312c-3.33301 -9.33301 -11.833 -16.666 -25.5 -21.999s-26.5 -9.66602 -38.5 -12.999l-50 -13
c-30 -8 -52.667 -20.333 -68 -37s-23 -41 -23 -73c0 -31.333 7.5 -56.5 22.5 -75.5s35.5 -28.5 61.5 -28.5c36.667 0 66.334 13 89.001 39s34 63 34 111v112z" />
    <glyph glyph-name="b" unicode="b" horiz-adv-x="444" 
d="M52 714h60.001v-263h2c6.66699 28 20.667 50.333 42 67s48.666 25 81.999 25c58.667 0 101.667 -23.167 129 -69.5s41 -115.5 41 -207.5c0 -92.667 -13.667 -162.167 -41 -208.5s-70.333 -69.5 -129 -69.5c-32 0 -59.667 9 -83 27s-39 42.333 -47 73h-2v-88h-54v714z
M112.001 266c0 -49.333 3.16699 -89 9.5 -119s14.833 -53 25.5 -69s23 -26.667 37 -32s28.667 -8 44 -8s29.833 2.66699 43.5 8s26 16 37 32s19.667 39 26 69s9.5 69.667 9.5 119s-3.16699 88.833 -9.5 118.5s-15 52.5 -26 68.5s-23.333 26.667 -37 32s-28.167 8 -43.5 8
s-30 -2.66699 -44 -8s-26.333 -16 -37 -32s-19.167 -38.833 -25.5 -68.5s-9.5 -69.167 -9.5 -118.5z" />
    <glyph glyph-name="c" unicode="c" horiz-adv-x="407" 
d="M377 176c-4.66699 -56.667 -21.6689 -102.169 -51.002 -136.502s-68.666 -51.5 -117.999 -51.5c-28 0 -53 5.16699 -75 15.5s-40.667 26.5 -56 48.5s-27 50.667 -35 86s-12 78 -12 128c0 92.667 15.833 162 47.5 208s76.834 69 135.501 69c50 0 89 -14.667 117 -44
s43.667 -71.333 47 -126h-60c-3.33301 42 -13.5 72.5 -30.5 91.5s-41.5 28.5 -73.5 28.5c-16 0 -31.333 -3 -46 -9s-27.334 -17.5 -38.001 -34.5s-19.167 -40.167 -25.5 -69.5s-9.5 -67.666 -9.5 -114.999c0 -50 3.33301 -90 10 -120s15.167 -52.833 25.5 -68.5
s22.333 -26 36 -31s27.5 -7.5 41.5 -7.5c30.667 0 55.334 11.333 74.001 34s30.667 57.334 36 104.001h60z" />
    <glyph glyph-name="d" unicode="d" horiz-adv-x="444" 
d="M338 88h-1.99902c-8 -30.667 -23.667 -55 -47 -73s-51 -27 -83 -27c-58.667 0 -101.667 23.167 -129 69.5s-41 115.833 -41 208.5c0 92 13.667 161.167 41 207.5s70.333 69.5 129 69.5c33.333 0 60.666 -8.33301 81.999 -25s35.333 -39 42 -67h2v263h60v-714h-54v88z
M100.001 266c0 -49.333 3.16699 -89 9.5 -119s15 -53 26 -69s23.5 -26.667 37.5 -32s28.333 -8 43 -8c15.333 0 30 2.66699 44 8s26.333 16 37 32s19.167 39 25.5 69s9.5 69.667 9.5 119s-3.16699 88.833 -9.5 118.5s-14.833 52.5 -25.5 68.5s-23 26.667 -37 32
s-28.667 8 -44 8c-14.667 0 -29 -2.66699 -43 -8s-26.5 -16 -37.5 -32s-19.667 -38.833 -26 -68.5s-9.5 -69.167 -9.5 -118.5z" />
    <glyph glyph-name="e" unicode="e" 
d="M385 176c-4.66699 -56.667 -21.833 -102.167 -51.5 -136.5s-69.5 -51.5 -119.5 -51.5c-28 0 -53 5.16699 -75 15.5s-40.667 26.5 -56 48.5s-27 50.667 -35 86s-12 78 -12 128c0 92.667 15.833 162 47.5 208s76.834 69 135.501 69c59.333 0 102.666 -20.667 129.999 -62
s41 -106.666 41 -195.999v-22h-290v-25c0 -38 3.16699 -69.833 9.5 -95.5s14.666 -46.334 24.999 -62.001s22.333 -26.667 36 -33s27.834 -9.5 42.501 -9.5c64.667 0 102 46 112 138h60zM326.001 313c-0.666992 66 -10.332 112.5 -28.999 139.5s-46.667 40.5 -84 40.5
c-36.667 0 -64.334 -13.5 -83.001 -40.5s-28.667 -73.5 -30 -139.5h226z" />
    <glyph glyph-name="f" unicode="f" horiz-adv-x="241" 
d="M80 481l-72.9961 -0.000976562v50h73v63c0 18 1.33301 34.833 4 50.5s8 29.334 16 41.001s19.667 20.667 35 27s35.666 9.5 60.999 9.5c9.33301 0 16.666 -0.166992 21.999 -0.5s10.666 -1.16602 15.999 -2.49902v-50c-8.66699 2 -18.334 3 -29.001 3
c-22 0 -38.333 -5.33301 -49 -16s-16 -31.334 -16 -62.001v-63h94v-50h-94v-481h-60v481z" />
    <glyph glyph-name="g" unicode="g" horiz-adv-x="444" 
d="M332 531h54.001v-493c0 -74 -13.833 -129.5 -41.5 -166.5s-71.834 -55.5 -132.501 -55.5c-52 0 -91.167 12.167 -117.5 36.5s-39.833 55.5 -40.5 93.5h60c0 -25.333 10 -45 30 -59s43.333 -21 70 -21c36.667 0 64.5 12.333 83.5 37s28.5 60.667 28.5 108v84h-2
c-9.33301 -32.667 -25.333 -56.667 -48 -72s-48 -23 -76 -23c-20.667 0 -40.834 4 -60.501 12s-37.167 22 -52.5 42s-27.666 47.167 -36.999 81.5s-14 77.833 -14 130.5c0 92 13.667 161.167 41 207.5s70.333 69.5 129 69.5c29.333 0 55 -8.16699 77 -24.5
s37.667 -39.5 47 -69.5h2v82zM100.001 272c0 -42.667 2.5 -78.167 7.5 -106.5s12.333 -51 22 -68s21.5 -29.167 35.5 -36.5s30 -11 48 -11s34 3.66699 48 11s25.833 19.5 35.5 36.5s17 39.667 22 68s7.5 63.833 7.5 106.5c0 42 -2.5 77.167 -7.5 105.5s-12.333 51 -22 68
s-21.5 29.167 -35.5 36.5s-30 11 -48 11s-34 -3.66699 -48 -11s-25.833 -19.5 -35.5 -36.5s-17 -39.667 -22 -68s-7.5 -63.5 -7.5 -105.5z" />
    <glyph glyph-name="h" unicode="h" horiz-adv-x="444" 
d="M58 714h59.999v-257h2c7.33301 27.333 22.833 48.5 46.5 63.5s51.5 22.5 83.5 22.5c40.667 0 73.5 -11.167 98.5 -33.5s37.5 -58.5 37.5 -108.5v-401h-60v384c0 72.667 -30.333 109 -91 109c-35.333 0 -63.666 -12.333 -84.999 -37s-32 -57.667 -32 -99v-357h-60v714z
" />
    <glyph glyph-name="i" unicode="i" horiz-adv-x="184" 
d="M62 531h60v-531h-60v531zM62 714h60v-102h-60v102z" />
    <glyph glyph-name="j" unicode="j" horiz-adv-x="184" 
d="M62 531h59.999v-593c0 -22.667 -3 -41.834 -9 -57.501s-14.167 -28.167 -24.5 -37.5s-22.5 -16.166 -36.5 -20.499s-29 -6.5 -45 -6.5c-12 0 -23 1 -33 3v50l10.5 -2c3.66699 -0.666992 7.83398 -1 12.501 -1c21.333 0 37.5 6 48.5 18s16.5 36.667 16.5 74v573z
M61.999 714h60v-102h-60v102z" />
    <glyph glyph-name="k" unicode="k" horiz-adv-x="407" 
d="M52 714h60v-447h2l206 264h74l-160 -197l189 -334h-74l-158 280l-79 -94v-186h-60v714z" />
    <glyph glyph-name="l" unicode="l" horiz-adv-x="184" 
d="M62 714h60v-714h-60v714z" />
    <glyph glyph-name="m" unicode="m" horiz-adv-x="686" 
d="M62 531l54.001 -0.000976562v-74h2c14 30 32.5 51.833 55.5 65.5s49.5 20.5 79.5 20.5c32 0 57.5 -8.66699 76.5 -26s30.5 -39.666 34.5 -66.999h2c12 30 29 53 51 69s50 24 84 24c37.333 0 67.166 -10.833 89.499 -32.5s33.5 -56.5 33.5 -104.5v-406h-60v397
c0 64 -27.667 96 -83 96c-30 0 -55.5 -12.333 -76.5 -37s-31.5 -57.667 -31.5 -99v-357h-60v397c0 64 -27.667 96 -83 96c-30 0 -55.5 -12.333 -76.5 -37s-31.5 -57.667 -31.5 -99v-357h-60v531z" />
    <glyph glyph-name="n" unicode="n" horiz-adv-x="444" 
d="M58 531h53.999v-74h2c15.333 30 35 51.833 59 65.5s49.667 20.5 77 20.5c40.667 0 73.5 -11.167 98.5 -33.5s37.5 -58.5 37.5 -108.5v-401h-60v384c0 72.667 -30.333 109 -91 109c-35.333 0 -63.666 -12.333 -84.999 -37s-32 -57.667 -32 -99v-357h-60v531z" />
    <glyph glyph-name="o" unicode="o" 
d="M30 266c0 92.667 15.833 162 47.5 208s76.834 69 135.501 69s103.834 -23 135.501 -69s47.5 -115.333 47.5 -208c0 -93.333 -15.833 -163 -47.5 -209s-76.834 -69 -135.501 -69s-103.834 23 -135.501 69s-47.5 115.667 -47.5 209zM94 266c0 -42.667 3 -78.5 9 -107.5
s14.333 -52.5 25 -70.5s23.334 -30.833 38.001 -38.5s30.334 -11.5 47.001 -11.5s32.334 3.83301 47.001 11.5s27.334 20.5 38.001 38.5s19 41.5 25 70.5s9 64.833 9 107.5c0 42 -3 77.5 -9 106.5s-14.333 52.5 -25 70.5s-23.334 30.833 -38.001 38.5
s-30.334 11.5 -47.001 11.5s-32.334 -3.83301 -47.001 -11.5s-27.334 -20.5 -38.001 -38.5s-19 -41.5 -25 -70.5s-9 -64.5 -9 -106.5z" />
    <glyph glyph-name="p" unicode="p" horiz-adv-x="444" 
d="M52 531h53.999v-76h2c9.33301 24.667 25 45.5 47 62.5s50 25.5 84 25.5c59.333 0 102.333 -23.167 129 -69.5s40 -115.833 40 -208.5c0 -92 -13.667 -161.167 -41 -207.5s-70.333 -69.5 -129 -69.5c-33.333 0 -60.666 8.33301 -81.999 25s-35.333 39 -42 67h-2v-256h-60
v707zM343.999 265c0 48 -3.16602 87 -9.49902 117s-14.833 53.167 -25.5 69.5s-22.834 27.333 -36.501 33s-27.834 8.5 -42.501 8.5c-17.333 0 -33.166 -4.16699 -47.499 -12.5s-26.5 -19.833 -36.5 -34.5c-13.333 -18.667 -22.333 -42 -27 -70s-7 -65 -7 -111
c0 -48.667 3.16699 -88 9.5 -118s14.833 -53 25.5 -69s23 -26.667 37 -32s28.667 -8 44 -8s29.833 2.66699 43.5 8s26 16 37 32s19.667 39 26 69s9.5 69.333 9.5 118z" />
    <glyph glyph-name="q" unicode="q" horiz-adv-x="444" 
d="M332 80h-2.00098c-6.66699 -28 -20.667 -50.333 -42 -67s-48.666 -25 -81.999 -25c-58.667 0 -101.667 23.167 -129 69.5s-41 115.5 -41 207.5c0 92.667 13.333 162.167 40 208.5s69.667 69.5 129 69.5c34 0 62 -8.5 84 -25.5s37.667 -37.833 47 -62.5h2v76h54v-707h-60
v256zM99.999 265c0 -48.667 3.16797 -88 9.50098 -118s15 -53 26 -69s23.5 -26.667 37.5 -32s28.333 -8 43 -8c15.333 0 30 2.66699 44 8s26.333 16 37 32s19.167 39 25.5 69s9.5 69.333 9.5 118c0 46 -2.33301 83 -7 111s-13.667 51.333 -27 70
c-10 14.667 -22.167 26.167 -36.5 34.5s-30.166 12.5 -47.499 12.5c-14.667 0 -28.834 -2.83301 -42.501 -8.5s-25.834 -16.667 -36.501 -33s-19.167 -39.5 -25.5 -69.5s-9.5 -69 -9.5 -117z" />
    <glyph glyph-name="r" unicode="r" horiz-adv-x="278" 
d="M58 531l60.002 0.000976562v-83h2c11.333 30 28.666 53.333 51.999 70s50.666 25 81.999 25c7.33301 0 14.333 -1 21 -3v-60c-10 2 -19.667 3 -29 3c-16.667 0 -32.667 -3 -48 -9s-29 -15.333 -41 -28s-21.5 -28.334 -28.5 -47.001s-10.5 -41 -10.5 -67v-332h-60v531z
" />
    <glyph glyph-name="s" unicode="s" horiz-adv-x="389" 
d="M142 264c-38 14.667 -64.499 32.6689 -79.499 54.002s-22.5 45.333 -22.5 72c0 27.333 4 50.666 12 69.999s19 35.166 33 47.499s30.667 21.333 50 27s40.333 8.5 63 8.5c50 0 86.833 -12.5 110.5 -37.5s35.5 -61.833 35.5 -110.5v-15h-60v15
c0 34.667 -7.5 59.667 -22.5 75s-36.5 23 -64.5 23c-35.333 0 -60.333 -8.33301 -75 -25s-22 -38.334 -22 -65.001c0 -18.667 4.5 -35.334 13.5 -50.001s28.5 -27.667 58.5 -39l87 -33c36 -13.333 61.5 -31.833 76.5 -55.5s22.5 -50.167 22.5 -79.5
c0 -45.333 -13.333 -83 -40 -113s-68 -45 -124 -45c-54.667 0 -95.5 12.333 -122.5 37s-40.5 67.334 -40.5 128.001v17h60v-14c0 -78.667 34 -118 102 -118c32 0 57.5 8.33301 76.5 25s28.5 40 28.5 70c0 23.333 -5.33301 42.833 -16 58.5s-29.334 28.834 -56.001 39.501z
" />
    <glyph glyph-name="t" unicode="t" horiz-adv-x="241" 
d="M80 481h-72.999v50h73v147h60v-147h94v-50h-94v-381c0 -21.333 4.66699 -36 14 -44s23.666 -12 42.999 -12c12 0 24.333 2 37 6v-50c-6.66699 -4 -20.667 -6 -42 -6c-40.667 0 -69.5 6.5 -86.5 19.5s-25.5 37.5 -25.5 73.5v394z" />
    <glyph glyph-name="u" unicode="u" horiz-adv-x="444" 
d="M58 531h60v-374c0 -43.333 7.33301 -74 22 -92s38 -27 70 -27c34 0 61.833 12.333 83.5 37s32.5 57.667 32.5 99v357h60v-531h-54v74h-2c-15.333 -30 -35 -51.833 -59 -65.5s-49.667 -20.5 -77 -20.5c-40.667 0 -73.5 11.167 -98.5 33.5s-37.5 58.5 -37.5 108.5v401z" />
    <glyph glyph-name="v" unicode="v" horiz-adv-x="370" 
d="M7 531h64l118 -463h2l108 463h64l-140 -531h-68z" />
    <glyph glyph-name="w" unicode="w" horiz-adv-x="592" 
d="M10 531h64l90 -471h2l96 471h74l90 -471h2l90 471h64l-118 -531h-71l-96 471h-2l-96 -471h-71z" />
    <glyph glyph-name="x" unicode="x" horiz-adv-x="370" 
d="M185 228l-111 -228h-68l143 274l-137 257h68l105 -210l105 210h68l-137 -257l143 -274h-68z" />
    <glyph glyph-name="y" unicode="y" horiz-adv-x="370" 
d="M7 531h63.998l119 -460h2l107 460h64l-155 -574c-6.66699 -26 -14 -47.5 -22 -64.5s-17.5 -30.667 -28.5 -41s-23.833 -17.5 -38.5 -21.5s-32 -6 -52 -6c-8 0 -15.167 0.166992 -21.5 0.5s-12.5 0.833008 -18.5 1.5v50c6.66699 -0.666992 13.167 -1.16699 19.5 -1.5
s12.833 -0.5 19.5 -0.5c18.667 0 34.334 4.83301 47.001 14.5s23.334 28.5 32.001 56.5l15 50z" />
    <glyph glyph-name="z" unicode="z" horiz-adv-x="352" 
d="M18 50l252 431h-239v50h303v-50l-252 -431h252v-50h-316v50z" />
    <glyph glyph-name="braceleft" unicode="{" horiz-adv-x="241" 
d="M91 594c0 36.667 8.33301 65.834 25 87.501s44 32.5 82 32.5h51v-50h-50c-15.333 0 -27.166 -4.83301 -35.499 -14.5s-12.5 -27.5 -12.5 -53.5v-186c0.666992 -47.333 -4.83301 -82 -16.5 -104s-28.834 -35.333 -51.501 -40v-2c22.667 -4.66699 39.834 -18 51.501 -40
s17.167 -56.667 16.5 -104v-186c0 -26 4.16699 -43.833 12.5 -53.5s20.166 -14.5 35.499 -14.5h50v-50h-51c-38 0 -65.333 10.833 -82 32.5s-25 50.834 -25 87.501v175c0 25.333 -1 46.166 -3 62.499s-5.16699 29.5 -9.5 39.5s-10.166 17 -17.499 21s-16.666 6 -27.999 6v50
c11.333 0 20.666 2 27.999 6s13.166 11 17.499 21s7.5 23.167 9.5 39.5s3 37.166 3 62.499v175z" />
    <glyph glyph-name="bar" unicode="|" horiz-adv-x="222" 
d="M86 726h50v-738h-50v738z" />
    <glyph glyph-name="braceright" unicode="}" horiz-adv-x="241" 
d="M150 -64c0 -36.667 -8.33301 -65.834 -25 -87.501s-44 -32.5 -82 -32.5h-51v50h50c15.333 0 27.166 4.83301 35.499 14.5s12.5 27.5 12.5 53.5v186c-0.666992 47.333 4.83301 82 16.5 104s28.834 35.333 51.501 40v2c-22.667 4.66699 -39.834 18 -51.501 40
s-17.167 56.667 -16.5 104v186c0 26 -4.16699 43.833 -12.5 53.5s-20.166 14.5 -35.499 14.5h-50v50h51c38 0 65.333 -10.833 82 -32.5s25 -50.834 25 -87.501v-175c0 -25.333 1 -46.166 3 -62.499s5.16699 -29.5 9.5 -39.5s10.333 -17 18 -21s16.834 -6 27.501 -6v-50
c-10.667 0 -19.834 -2 -27.501 -6s-13.667 -11 -18 -21s-7.5 -23.167 -9.5 -39.5s-3 -37.166 -3 -62.499v-175z" />
    <glyph glyph-name="asciitilde" unicode="~" horiz-adv-x="600" 
d="M531 280c-21.333 -29.333 -40.6689 -51.001 -58.002 -65.001s-39.666 -21 -66.999 -21c-14.667 0 -29.167 2.16699 -43.5 6.5s-33.833 13.166 -58.5 26.499c-28 15.333 -50.167 25 -66.5 29s-32.5 6 -48.5 6c-22 0 -39.5 -7.66699 -52.5 -23s-23.5 -31.666 -31.5 -48.999
l-36 36c5.33301 10.667 11.833 21.167 19.5 31.5s16.5 19.5 26.5 27.5s21.5 14.5 34.5 19.5s27.833 7.5 44.5 7.5c14.667 0 30.5 -2.5 47.5 -7.5s38.167 -13.167 63.5 -24.5c32 -14 54.833 -23.5 68.5 -28.5s24.834 -7.5 33.501 -7.5c16 0 30.833 5.83301 44.5 17.5
s28.167 29.834 43.5 54.501z" />
    <glyph glyph-name="uni00A0" unicode="&#xa0;" horiz-adv-x="240" 
 />
    <glyph glyph-name="exclamdown" unicode="&#xa1;" horiz-adv-x="240" 
d="M86 54l12 302h44l12 -302v-226h-68v226zM86 542h68v-102h-68v102z" />
    <glyph glyph-name="cent" unicode="&#xa2;" horiz-adv-x="480" 
d="M232 493c-14 -2 -27.334 -7.00098 -40.001 -15.001s-23.5 -20.5 -32.5 -37.5s-16.167 -39.667 -21.5 -68s-8 -64.166 -8 -107.499c0 -46.667 2.83301 -84.5 8.5 -113.5s13.334 -51.833 23.001 -68.5s20.667 -28 33 -34s24.833 -9.66699 37.5 -11v455zM231.999 -12.001
c-52.667 2.66699 -93.499 25.665 -122.499 68.998s-43.5 113 -43.5 209c0 88 14.333 155 43 201s69.667 71.333 123 76v83h30v-83c47.333 -3.33301 83.666 -19.5 108.999 -48.5s39.666 -69.5 42.999 -121.5h-60c-6 74 -36.667 114 -92 120v-455
c52.667 11.333 83.334 57.333 92.001 138h60c-4 -53.333 -19.167 -96.666 -45.5 -129.999s-61.833 -52.666 -106.5 -57.999v-83h-30v83z" />
    <glyph glyph-name="sterling" unicode="&#xa3;" horiz-adv-x="480" 
d="M384 504c-5.33301 102.667 -51.6699 154.003 -139.003 154.003c-38 0 -69.833 -10.667 -95.5 -32s-38.5 -51 -38.5 -89c0 -17.333 3.83301 -37 11.5 -59s17.167 -43 28.5 -63l24 -45h151v-44h-134c6.66699 -10.667 11.167 -22.334 13.5 -35.001s3.5 -25.334 3.5 -38.001
c0 -36.667 -10 -71.5 -30 -104.5s-49 -64.5 -87 -94.5l2 -2c13.333 6.66699 26.333 12.334 39 17.001s25.667 7 39 7c7.33301 0 17 -2 29 -6s25 -8 39 -12c13.333 -4 26.5 -7.66699 39.5 -11s24.167 -5 33.5 -5c20.667 0 40.667 4.66699 60 14s39.333 21.333 60 36l27 -46
c-19.333 -18 -41.666 -32.167 -66.999 -42.5s-54.666 -15.5 -87.999 -15.5c-12.667 0 -25.5 2 -38.5 6s-26.333 8.33301 -40 13s-27.167 9 -40.5 13s-26.333 6 -39 6c-21.333 0 -40.5 -4.16699 -57.5 -12.5s-29.833 -14.833 -38.5 -19.5l-31 49
c38 27.333 68.333 58.166 91 92.499s34 70.166 34 107.499c0 14.667 -2 29.167 -6 43.5s-9 27.5 -15 39.5h-98v44h81l-34 65c-8 15.333 -14.333 31.333 -19 48s-7 32.667 -7 48c0 28.667 5.33301 54 16 76s25.334 40.5 44.001 55.5s40.167 26.333 64.5 34
s50.166 11.5 77.499 11.5c30.667 0 58.167 -5 82.5 -15s44.833 -24 61.5 -42s29.334 -39.5 38.001 -64.5s13 -52.5 13 -82.5h-60z" />
    <glyph glyph-name="currency" unicode="&#xa4;" horiz-adv-x="480" 
d="M22 165l46.999 47.001c-15.333 19.333 -27.333 40.5 -36 63.5s-13 47.167 -13 72.5s4.33301 49.666 13 72.999s20.667 44.666 36 63.999l-47 47l35 36l47 -47c18.667 14.667 39.5 26.167 62.5 34.5s47.5 12.5 73.5 12.5c52 0 97.667 -16 137 -48l47 48l35 -36l-47 -47
c15.333 -18.667 27.166 -39.667 35.499 -63s12.5 -48 12.5 -74s-4.16699 -50.5 -12.5 -73.5s-19.833 -43.833 -34.5 -62.5l46 -47l-35 -37l-47 49c-19.333 -15.333 -40.666 -27.333 -63.999 -36s-47.666 -13 -72.999 -13c-26 0 -50.833 4.33301 -74.5 13
s-44.5 20.334 -62.5 35.001l-46 -48zM73.999 348.001c0 -24.667 4.66699 -47.334 14 -68.001s21.666 -38.5 36.999 -53.5s33 -26.833 53 -35.5s40.667 -13 62 -13s42 4.33301 62 13s37.667 20.5 53 35.5s27.666 32.833 36.999 53.5s14 43.334 14 68.001
s-4.66699 47.334 -14 68.001s-21.666 38.5 -36.999 53.5s-33 26.833 -53 35.5s-40.667 13 -62 13s-42 -4.33301 -62 -13s-37.667 -20.5 -53 -35.5s-27.666 -32.833 -36.999 -53.5s-14 -43.334 -14 -68.001z" />
    <glyph glyph-name="yen" unicode="&#xa5;" horiz-adv-x="480" 
d="M208 174h-140v44h140v63l-11 24h-129v44h109l-162 347h68l157 -344l157 344h68l-162 -347h109v-44h-129l-11 -24v-63h140v-44h-140v-174h-64v174z" />
    <glyph glyph-name="brokenbar" unicode="&#xa6;" horiz-adv-x="222" 
d="M86 258h50v-270h-50v270zM86 726h50v-270h-50v270z" />
    <glyph glyph-name="section" unicode="&#xa7;" horiz-adv-x="481" 
d="M345 577c0 30.667 -9.49707 54.835 -28.4971 72.502s-43.833 26.5 -74.5 26.5s-55.334 -8.33301 -74.001 -25s-28 -37.334 -28 -62.001c0 -17.333 5.66699 -33.166 17 -47.499s31.333 -30.833 60 -49.5l132 -86c36.667 -23.333 62 -46 76 -68s21 -48.667 21 -80
c0 -30 -9 -57.333 -27 -82s-40.333 -43.667 -67 -57c18 -14.667 32.5 -32.5 43.5 -53.5s16.5 -42.5 16.5 -64.5c0 -21.333 -3.66699 -41.166 -11 -59.499s-18.166 -34.333 -32.499 -48s-31.833 -24.334 -52.5 -32.001s-44 -11.5 -70 -11.5
c-26.667 0 -50.667 3.83301 -72 11.5s-39.5 18.334 -54.5 32.001s-26.5 29.667 -34.5 48s-12 38.5 -12 60.5v20h60c0 -36 8.66699 -65.333 26 -88s45.666 -34 84.999 -34c31.333 0 56.5 8.66699 75.5 26s28.5 39 28.5 65c0 24 -6.33301 44.333 -19 61s-34 34.667 -64 54
l-120 77c-38.667 25.333 -66.667 49.166 -84 71.499s-26 49.833 -26 82.5c0 14.667 2.83301 29.167 8.5 43.5s13.334 27.5 23.001 39.5s20.667 22.667 33 32s25.166 16.666 38.499 21.999c-18.667 13.333 -33.667 29.666 -45 48.999s-17 40.333 -17 63
c0 22 4.5 41.667 13.5 59s21.167 32 36.5 44s33.166 21.167 53.499 27.5s42.166 9.5 65.499 9.5c51.333 0 90.833 -13.833 118.5 -41.5s41.5 -63.5 41.5 -107.5h-60zM176.003 447.001c-30 -16 -50.999 -32.833 -62.999 -50.5s-18 -36.167 -18 -55.5s7 -37.5 21 -54.5
s35 -34.5 63 -52.5l132 -86c25.333 12 44.166 27 56.499 45s18.5 40.667 18.5 68c0 16.667 -6.33301 33.167 -19 49.5s-28.667 30.833 -48 43.5z" />
    <glyph glyph-name="dieresis" unicode="&#xa8;" horiz-adv-x="186" 
d="M-12 720h60v-102h-60v102zM138 720h60v-102h-60v102z" />
    <glyph glyph-name="copyright" unicode="&#xa9;" horiz-adv-x="800" 
d="M599 281c-11.333 -46.667 -33.501 -84.6699 -66.501 -114.003s-73.167 -44 -120.5 -44c-34 0 -64.667 6 -92 18s-50.833 28.5 -70.5 49.5s-34.667 45.833 -45 74.5s-15.5 59.334 -15.5 92.001c0 34 5 65.167 15 93.5s24.5 52.833 43.5 73.5s42 36.834 69 48.501
s57.833 17.5 92.5 17.5c24 0 46.833 -3.33301 68.5 -10s40.834 -16.5 57.501 -29.5s30.667 -29 42 -48s18.666 -40.833 21.999 -65.5h-54c-6.66699 29.333 -21.667 53.833 -45 73.5s-53.666 29.5 -90.999 29.5c-27.333 0 -51.333 -4.66699 -72 -14s-38 -22.333 -52 -39
s-24.5 -36 -31.5 -58s-10.5 -46 -10.5 -72c0 -24 3.83301 -47 11.5 -69s18.667 -41.5 33 -58.5s32 -30.667 53 -41s44.833 -15.5 71.5 -15.5c36 0 65.667 10.333 89 31s38 46.334 44 77.001h54zM30.999 356.997c0 51.333 9.66699 99.333 29 144s45.666 83.667 78.999 117
s72.5 59.666 117.5 78.999s92.833 29 143.5 29c51.333 0 99.333 -9.66699 144 -29s83.667 -45.666 117 -78.999s59.666 -72.333 78.999 -117s29 -92.667 29 -144c0 -50.667 -9.66699 -98.5 -29 -143.5s-45.666 -84.167 -78.999 -117.5s-72.333 -59.666 -117 -78.999
s-92.667 -29 -144 -29c-50.667 0 -98.5 9.66699 -143.5 29s-84.167 45.666 -117.5 78.999s-59.666 72.5 -78.999 117.5s-29 92.833 -29 143.5zM80.999 356.997c0 -44 8.33301 -85.333 25 -124s39.5 -72.5 68.5 -101.5s62.833 -51.833 101.5 -68.5s80 -25 124 -25
s85.333 8.33301 124 25s72.5 39.5 101.5 68.5s51.833 62.833 68.5 101.5s25 80 25 124s-8.33301 85.333 -25 124s-39.5 72.5 -68.5 101.5s-62.833 51.833 -101.5 68.5s-80 25 -124 25s-85.333 -8.33301 -124 -25s-72.5 -39.5 -101.5 -68.5s-51.833 -62.833 -68.5 -101.5
s-25 -80 -25 -124z" />
    <glyph glyph-name="ordfeminine" unicode="&#xaa;" horiz-adv-x="277" 
d="M15 602c0 34.667 8.99707 61.001 26.9971 79.001s48 27 90 27s70.667 -7.83301 86 -23.5s23 -36.167 23 -61.5v-185c0 -18 6.66699 -27 20 -27h11v-38c-8.66699 -4 -20 -6 -34 -6c-12 0 -22.5 2.5 -31.5 7.5s-13.5 15.833 -13.5 32.5v14h-2
c-7.33301 -21.333 -19.166 -35.666 -35.499 -42.999s-34.166 -11 -53.499 -11c-33.333 0 -57.833 9.16699 -73.5 27.5s-23.5 40.5 -23.5 66.5c0 24.667 6.16699 44.834 18.5 60.501s32.5 27.167 60.5 34.5l74 19c13.333 3.33301 22.166 7.66602 26.499 12.999
s6.5 15.666 6.5 30.999s-5.66699 26.666 -17 33.999s-25.666 11 -42.999 11c-23.333 0 -40.166 -5.83301 -50.499 -17.5s-15.5 -26.5 -15.5 -44.5h-50zM190.997 551.001l-2 -0.00195312c-2 -5.33301 -7.5 -9.66602 -16.5 -12.999s-17.167 -6 -24.5 -8l-33 -8
c-37.333 -9.33301 -56 -27.666 -56 -54.999c0 -15.333 4.83301 -28.5 14.5 -39.5s22.167 -16.5 37.5 -16.5c23.333 0 42.5 7.66699 57.5 23s22.5 37 22.5 65v52z" />
    <glyph glyph-name="guillemotleft" unicode="&#xab;" horiz-adv-x="370" 
d="M188 314l125 139v-68l-89 -101l89 -101v-68l-125 139v60zM57 314l125 139v-68l-89 -101l89 -101v-68l-125 139v60z" />
    <glyph glyph-name="logicalnot" unicode="&#xac;" horiz-adv-x="600" 
d="M503 325h-456v50h506v-267h-50v217z" />
    <glyph glyph-name="uni00AD" unicode="&#xad;" horiz-adv-x="333" 
d="M275 311v-54h-217v54h217z" />
    <glyph glyph-name="registered" unicode="&#xae;" horiz-adv-x="800" 
d="M403 333l-92 0.000976562v-195h-50v439h169c50 0 86.333 -10.5 109 -31.5s34 -51.167 34 -90.5c0 -19.333 -3 -36 -9 -50s-14 -26 -24 -36s-21.667 -17.833 -35 -23.5s-27.333 -9.83398 -42 -12.501l130 -195h-60zM311 377.001l107.999 0.000976562
c29.333 -0.666992 54 4.66602 74 15.999s30 32.333 30 63c0 15.333 -3 28 -9 38s-13.833 17.833 -23.5 23.5s-20.667 9.66699 -33 12s-25.166 3.5 -38.499 3.5h-108v-156zM30.999 357.002c0 51.333 9.66699 99.333 29 144s45.666 83.667 78.999 117
s72.5 59.666 117.5 78.999s92.833 29 143.5 29c51.333 0 99.333 -9.66699 144 -29s83.667 -45.666 117 -78.999s59.666 -72.333 78.999 -117s29 -92.667 29 -144c0 -50.667 -9.66699 -98.5 -29 -143.5s-45.666 -84.167 -78.999 -117.5s-72.333 -59.666 -117 -78.999
s-92.667 -29 -144 -29c-50.667 0 -98.5 9.66699 -143.5 29s-84.167 45.666 -117.5 78.999s-59.666 72.5 -78.999 117.5s-29 92.833 -29 143.5zM80.999 357.002c0 -44 8.33301 -85.333 25 -124s39.5 -72.5 68.5 -101.5s62.833 -51.833 101.5 -68.5s80 -25 124 -25
s85.333 8.33301 124 25s72.5 39.5 101.5 68.5s51.833 62.833 68.5 101.5s25 80 25 124s-8.33301 85.333 -25 124s-39.5 72.5 -68.5 101.5s-62.833 51.833 -101.5 68.5s-80 25 -124 25s-85.333 -8.33301 -124 -25s-72.5 -39.5 -101.5 -68.5s-51.833 -62.833 -68.5 -101.5
s-25 -80 -25 -124z" />
    <glyph glyph-name="macron" unicode="&#xaf;" horiz-adv-x="186" 
d="M-26 690h238v-44h-238v44z" />
    <glyph glyph-name="degree" unicode="&#xb0;" horiz-adv-x="400" 
d="M101 565c0 -28 9.5 -51.5 28.5 -70.5s42.5 -28.5 70.5 -28.5s51.5 9.5 70.5 28.5s28.5 42.5 28.5 70.5s-9.5 51.5 -28.5 70.5s-42.5 28.5 -70.5 28.5s-51.5 -9.5 -70.5 -28.5s-28.5 -42.5 -28.5 -70.5zM57 565c0 20 3.66699 38.667 11 56s17.5 32.5 30.5 45.5
s28.167 23.167 45.5 30.5s36 11 56 11s38.667 -3.66699 56 -11s32.5 -17.5 45.5 -30.5s23.167 -28.167 30.5 -45.5s11 -36 11 -56s-3.66699 -38.667 -11 -56s-17.5 -32.5 -30.5 -45.5s-28.167 -23.167 -45.5 -30.5s-36 -11 -56 -11s-38.667 3.66699 -56 11
s-32.5 17.5 -45.5 30.5s-23.167 28.167 -30.5 45.5s-11 36 -11 56z" />
    <glyph glyph-name="plusminus" unicode="&#xb1;" horiz-adv-x="600" 
d="M275 506h50v-172h228v-50h-228v-172h-50v172h-228v50h228v172zM47 50h506v-50h-506v50z" />
    <glyph glyph-name="twosuperior" unicode="&#xb2;" horiz-adv-x="312" 
d="M24 573c0.666992 42 11.8359 74.999 33.5029 98.999s56.167 36 103.5 36c17.333 0 33.5 -2.16699 48.5 -6.5s28.167 -11.166 39.5 -20.499s20.333 -21.333 27 -36s10 -32 10 -52c0 -25.333 -4.66699 -47.833 -14 -67.5s-29 -40.834 -59 -63.501l-50 -37
c-24.667 -18 -43.334 -34.833 -56.001 -50.5s-21.334 -32.5 -26.001 -50.5h207v-44h-261c0 37.333 8.33301 68.333 25 93s40.334 49.334 71.001 74.001l49 39c23.333 18 39.166 35 47.499 51s12.5 34 12.5 54c0 25.333 -7.33301 43.833 -22 55.5s-32.334 17.5 -53.001 17.5
c-23.333 0 -42 -7.66699 -56 -23s-21.667 -38 -23 -68h-54z" />
    <glyph glyph-name="threesuperior" unicode="&#xb3;" horiz-adv-x="312" 
d="M119 525l18.001 0.00195312c28 0 49.5 6.5 64.5 19.5s22.5 29.5 22.5 49.5c0 19.333 -6.16699 35.833 -18.5 49.5s-29.5 20.5 -51.5 20.5c-20 0 -37.333 -6.5 -52 -19.5s-22.334 -31.167 -23.001 -54.5h-54c0 36 10.5 64.667 31.5 86s53.5 32 97.5 32
c39.333 0 69.833 -9.33301 91.5 -28s32.5 -44.334 32.5 -77.001c0 -24 -6 -44.833 -18 -62.5s-30.667 -29.167 -56 -34.5v-2c28 -3.33301 49.667 -14.333 65 -33s23 -41.334 23 -68.001c0 -38.667 -11.333 -70 -34 -94s-57.334 -36 -104.001 -36
c-42 0 -74.5 10.333 -97.5 31s-35.167 51 -36.5 91h54c0.666992 -18.667 7.83398 -36.334 21.501 -53.001s33.167 -25 58.5 -25c10 0 20 1.66699 30 5s19 8.5 27 15.5s14.5 15.833 19.5 26.5s7.5 23.334 7.5 38.001c0 24.667 -8.33301 44 -25 58s-39 21 -67 21h-27v44z" />
    <glyph glyph-name="acute" unicode="&#xb4;" horiz-adv-x="186" 
d="M196 738l-98 -141h-48l75 141h71z" />
    <glyph glyph-name="mu" unicode="&#xb5;" horiz-adv-x="444" 
d="M58 531l59.998 -0.000976562v-374c0 -43.333 7.33301 -74 22 -92s38 -27 70 -27c34 0 61.833 12.333 83.5 37s32.5 57.667 32.5 99v357h60v-531h-54v74h-2c-15.333 -30 -35 -51.833 -59 -65.5s-49.667 -20.5 -77 -20.5c-17.333 0 -32.666 1.83301 -45.999 5.5
s-22.666 9.83398 -27.999 18.501h-2v-188h-60v707z" />
    <glyph glyph-name="paragraph" unicode="&#xb6;" horiz-adv-x="481" 
d="M194 334c-22 0 -43 4.66504 -63 13.998s-37.5 22.333 -52.5 39s-26.833 36 -35.5 58s-13 45.667 -13 71c0 32 4.66699 60.333 14 85s22.333 45.334 39 62.001s36.5 29.334 59.5 38.001s48.5 13 76.5 13h182v-852h-50v808h-107v-808h-50v472z" />
    <glyph glyph-name="periodcentered" unicode="&#xb7;" horiz-adv-x="240" 
d="M65 328c0 15.333 5.33301 28.333 16 39s23.667 16 39 16s28.333 -5.33301 39 -16s16 -23.667 16 -39s-5.33301 -28.333 -16 -39s-23.667 -16 -39 -16s-28.333 5.33301 -39 16s-16 23.667 -16 39z" />
    <glyph glyph-name="cedilla" unicode="&#xb8;" horiz-adv-x="186" 
d="M127 0l-43 -56.001l2 -1c4.66699 2 9.83398 3.33301 15.501 4s11.834 1 18.501 1c21.333 0 39.5 -6.5 54.5 -19.5s22.5 -28.833 22.5 -47.5c0 -14 -3.33301 -26.333 -10 -37s-15.167 -19.5 -25.5 -26.5s-21.833 -12.333 -34.5 -16s-24.667 -5.5 -36 -5.5
c-15.333 0 -31.5 2 -48.5 6s-30.5 8.66699 -40.5 14l12 31c8 -4 17.167 -7.5 27.5 -10.5s21.166 -4.5 32.499 -4.5c24 0 41.5 4.33301 52.5 13s16.5 19 16.5 31c0 12.667 -5.5 21.834 -16.5 27.501s-23.167 8.5 -36.5 8.5c-18.667 0 -33.334 -3.33301 -44.001 -10l-13 17
l57 81h37z" />
    <glyph glyph-name="onesuperior" unicode="&#xb9;" horiz-adv-x="312" 
d="M144 600h-107.999v36c40 0.666992 69.167 7.5 87.5 20.5s28.166 30.167 29.499 51.5h45v-428h-54v320z" />
    <glyph glyph-name="ordmasculine" unicode="&#xba;" horiz-adv-x="277" 
d="M9 538c0 113.333 43 170 129 170c86.667 0 130 -56.667 130 -170c0 -114 -43.333 -171 -130 -171c-86 0 -129 57 -129 171zM63 538c0 -46 7.33301 -78.667 22 -98s32.334 -29 53.001 -29c21.333 0 39.333 9.66699 54 29s22 52 22 98s-7.33301 78.5 -22 97.5
s-32.667 28.5 -54 28.5c-20.667 0 -38.334 -9.5 -53.001 -28.5s-22 -51.5 -22 -97.5z" />
    <glyph glyph-name="guillemotright" unicode="&#xbb;" horiz-adv-x="370" 
d="M57 183l89 101l-89 101v68l125 -139v-60l-125 -139v68zM188 183l89 101l-89 101v68l125 -139v-60l-125 -139v68z" />
    <glyph glyph-name="onequarter" unicode="&#xbc;" horiz-adv-x="721" 
d="M567 110h-186v36l176 282h60v-282h54v-36h-54v-110h-50v110zM567 146v214h-2l-140 -214h142zM541 726h50l-451 -756h-50zM144 600h-107.999v36c40 0.666992 69.167 7.5 87.5 20.5s28.166 30.167 29.499 51.5h45v-428h-54v320z" />
    <glyph glyph-name="onehalf" unicode="&#xbd;" horiz-adv-x="721" 
d="M511 726h50l-451 -756h-50zM144 600h-107.999v36c40 0.666992 69.167 7.5 87.5 20.5s28.166 30.167 29.499 51.5h45v-428h-54v320zM393.001 293c0.666992 42 11.8359 74.999 33.5029 98.999s56.167 36 103.5 36c17.333 0 33.5 -2.16699 48.5 -6.5
s28.167 -11.166 39.5 -20.499s20.333 -21.333 27 -36s10 -32 10 -52c0 -25.333 -4.66699 -47.833 -14 -67.5s-29 -40.834 -59 -63.501l-50 -37c-24.667 -18 -43.334 -34.833 -56.001 -50.5s-21.334 -32.5 -26.001 -50.5h207v-44h-261c0 37.333 8.33301 68.333 25 93
s40.334 49.334 71.001 74.001l49 39c23.333 18 39.166 35 47.499 51s12.5 34 12.5 54c0 25.333 -7.33301 43.833 -22 55.5s-32.334 17.5 -53.001 17.5c-23.333 0 -42 -7.66699 -56 -23s-21.667 -38 -23 -68h-54z" />
    <glyph glyph-name="threequarters" unicode="&#xbe;" horiz-adv-x="721" 
d="M567 110h-186v36l176 282h60v-282h54v-36h-54v-110h-50v110zM567 146v214h-2l-140 -214h142zM571 726h50l-451 -756h-50zM119 525l18.001 0.00195312c28 0 49.5 6.5 64.5 19.5s22.5 29.5 22.5 49.5c0 19.333 -6.16699 35.833 -18.5 49.5s-29.5 20.5 -51.5 20.5
c-20 0 -37.333 -6.5 -52 -19.5s-22.334 -31.167 -23.001 -54.5h-54c0 36 10.5 64.667 31.5 86s53.5 32 97.5 32c39.333 0 69.833 -9.33301 91.5 -28s32.5 -44.334 32.5 -77.001c0 -24 -6 -44.833 -18 -62.5s-30.667 -29.167 -56 -34.5v-2c28 -3.33301 49.667 -14.333 65 -33
s23 -41.334 23 -68.001c0 -38.667 -11.333 -70 -34 -94s-57.334 -36 -104.001 -36c-42 0 -74.5 10.333 -97.5 31s-35.167 51 -36.5 91h54c0.666992 -18.667 7.83398 -36.334 21.501 -53.001s33.167 -25 58.5 -25c10 0 20 1.66699 30 5s19 8.5 27 15.5s14.5 15.833 19.5 26.5
s7.5 23.334 7.5 38.001c0 24.667 -8.33301 44 -25 58s-39 21 -67 21h-27v44z" />
    <glyph glyph-name="questiondown" unicode="&#xbf;" 
d="M258 357l0.00195312 -35c0 -18.667 -1 -34.834 -3 -48.501s-5.5 -26.5 -10.5 -38.5s-11.833 -23.833 -20.5 -35.5s-19.334 -24.167 -32.001 -37.5l-42 -45c-19.333 -20.667 -32.833 -42.167 -40.5 -64.5s-11.5 -43.166 -11.5 -62.499c0 -36 10.167 -65.667 30.5 -89
s47.5 -35 81.5 -35c43.333 0 75.5 14.5 96.5 43.5s31.5 70.5 31.5 124.5h64c0 -31.333 -3.83301 -60.166 -11.5 -86.499s-19.334 -49.333 -35.001 -69s-35.167 -35 -58.5 -46s-51 -16.5 -83 -16.5c-56 0 -100 16.167 -132 48.5s-48 74.5 -48 126.5
c0 26 4.33301 51.667 13 77s26 52 52 80l43 46c20.667 21.333 35.167 41.666 43.5 60.999s12.5 44 12.5 74v28h60zM194.002 542h68v-102h-68v102z" />
    <glyph glyph-name="Agrave" unicode="&#xc0;" horiz-adv-x="500" 
d="M361 262l-110 402h-2l-110 -402h222zM210 714h80l211 -714h-68l-58 208h-250l-58 -208h-68zM218 889l75 -141h-48l-98 141h71z" />
    <glyph glyph-name="Aacute" unicode="&#xc1;" horiz-adv-x="500" 
d="M361 262l-110 402h-2l-110 -402h222zM210 714h80l211 -714h-68l-58 208h-250l-58 -208h-68zM353 889l-98 -141h-48l75 141h71z" />
    <glyph glyph-name="Acircumflex" unicode="&#xc2;" horiz-adv-x="500" 
d="M361 262l-110 402h-2l-110 -402h222zM210 714h80l211 -714h-68l-58 208h-250l-58 -208h-68zM124 748l96 141h60l96 -141h-60l-66 100l-66 -100h-60z" />
    <glyph glyph-name="Atilde" unicode="&#xc3;" horiz-adv-x="500" 
d="M361 262l-110 402h-2l-110 -402h222zM210 714h80l211 -714h-68l-58 208h-250l-58 -208h-68zM384 869c0 -10 -1.83398 -20.8311 -5.50098 -32.498s-8.83398 -22.334 -15.501 -32.001s-14.667 -17.667 -24 -24s-20 -9.5 -32 -9.5c-9.33301 0 -17.666 1.16699 -24.999 3.5
s-15.333 6.16602 -24 11.499l-38 21c-10.667 5.33301 -18.667 8 -24 8c-9.33301 0 -17.166 -5.16699 -23.499 -15.5s-10.5 -21.166 -12.5 -32.499h-44c0.666992 10.667 3 21.667 7 33s9.33301 21.833 16 31.5s14.5 17.667 23.5 24s18.833 9.5 29.5 9.5
c11.333 0 20.833 -1.33301 28.5 -4s17.167 -7.33398 28.5 -14.001l26 -15c5.33301 -3.33301 10.5 -6 15.5 -8s9.83301 -3 14.5 -3c5.33301 0 10.333 1.66699 15 5s8.5 7.5 11.5 12.5s5.16699 10.333 6.5 16s2 10.5 2 14.5h44z" />
    <glyph glyph-name="Adieresis" unicode="&#xc4;" horiz-adv-x="500" 
d="M361 262l-110 402h-2l-110 -402h222zM210 714h80l211 -714h-68l-58 208h-250l-58 -208h-68zM145 871h60v-102h-60v102zM295 871h60v-102h-60v102z" />
    <glyph glyph-name="Aring" unicode="&#xc5;" horiz-adv-x="500" 
d="M361 262l-110 402h-2l-110 -402h222zM210 714h80l211 -714h-68l-58 208h-250l-58 -208h-68zM155 832c0 13.333 2.5 25.666 7.5 36.999s11.833 21.333 20.5 30s18.834 15.5 30.501 20.5s23.834 7.5 36.501 7.5c13.333 0 25.666 -2.5 36.999 -7.5s21.333 -11.833 30 -20.5
s15.5 -18.667 20.5 -30s7.5 -23.666 7.5 -36.999c0 -12.667 -2.5 -24.834 -7.5 -36.501s-11.833 -21.834 -20.5 -30.501s-18.667 -15.5 -30 -20.5s-23.666 -7.5 -36.999 -7.5c-12.667 0 -24.834 2.5 -36.501 7.5s-21.834 11.833 -30.501 20.5s-15.5 18.834 -20.5 30.501
s-7.5 23.834 -7.5 36.501zM191 832c0 -16.667 5.66699 -30.667 17 -42s25.333 -17 42 -17s30.667 5.66699 42 17s17 25.333 17 42s-5.66699 30.667 -17 42s-25.333 17 -42 17s-30.667 -5.66699 -42 -17s-17 -25.333 -17 -42z" />
    <glyph glyph-name="AE" unicode="&#xc6;" horiz-adv-x="704" 
d="M332 208h-191l-81 -208h-68l290 714h395v-54h-281v-260h262v-54h-262v-292h290v-54h-354v208zM332 262v398h-10l-161 -398h171z" />
    <glyph glyph-name="Ccedilla" unicode="&#xc7;" horiz-adv-x="519" 
d="M267 -12c-70 3.33301 -123.668 34.498 -161.001 93.498s-56 150.833 -56 275.5c0 128 19.833 221.5 59.5 280.5s95.834 88.5 168.501 88.5c36 0 67 -6 93 -18s47.333 -28 64 -48s28.834 -43.333 36.501 -70s11.5 -54.667 11.5 -84h-64c0 48.667 -12 88.5 -36 119.5
s-59 46.5 -105 46.5c-25.333 0 -48.166 -5.5 -68.499 -16.5s-37.5 -29 -51.5 -54s-24.833 -57.5 -32.5 -97.5s-11.5 -89 -11.5 -147s3.83301 -107 11.5 -147s18.5 -72.5 32.5 -97.5s31.167 -43 51.5 -54s43.166 -16.5 68.499 -16.5c45.333 0 80.5 17.833 105.5 53.5
s39.167 84.5 42.5 146.5h64c-4 -76 -21.833 -135.667 -53.5 -179s-75.834 -67.666 -132.501 -72.999l-35 -46l2 -1c4.66699 2 9.83398 3.33301 15.501 4s11.834 1 18.501 1c21.333 0 39.5 -6.5 54.5 -19.5s22.5 -28.833 22.5 -47.5c0 -14 -3.33301 -26.333 -10 -37
s-15.167 -19.5 -25.5 -26.5s-21.833 -12.333 -34.5 -16s-24.667 -5.5 -36 -5.5c-15.333 0 -31.5 2 -48.5 6s-30.5 8.66699 -40.5 14l12 31c8 -4 17.167 -7.5 27.5 -10.5s21.166 -4.5 32.499 -4.5c24 0 41.5 4.33301 52.5 13s16.5 19 16.5 31
c0 12.667 -5.5 21.834 -16.5 27.501s-23.167 8.5 -36.5 8.5c-18.667 0 -33.334 -3.33301 -44.001 -10l-13 17z" />
    <glyph glyph-name="Egrave" unicode="&#xc8;" horiz-adv-x="444" 
d="M56 714h354v-54h-290v-260h271v-54h-271v-292h299v-54h-363v714zM208 889l75 -141h-48l-98 141h71z" />
    <glyph glyph-name="Eacute" unicode="&#xc9;" horiz-adv-x="444" 
d="M56 714h354v-54h-290v-260h271v-54h-271v-292h299v-54h-363v714zM343 889l-98 -141h-48l75 141h71z" />
    <glyph glyph-name="Ecircumflex" unicode="&#xca;" horiz-adv-x="444" 
d="M56 714h354v-54h-290v-260h271v-54h-271v-292h299v-54h-363v714zM114 748l96 141h60l96 -141h-60l-66 100l-66 -100h-60z" />
    <glyph glyph-name="Edieresis" unicode="&#xcb;" horiz-adv-x="444" 
d="M56 714h354v-54h-290v-260h271v-54h-271v-292h299v-54h-363v714zM135 871h60v-102h-60v102zM285 871h60v-102h-60v102z" />
    <glyph glyph-name="Igrave" unicode="&#xcc;" horiz-adv-x="184" 
d="M60 714h64v-714h-64v714zM60 889l75 -141h-48l-98 141h71z" />
    <glyph glyph-name="Iacute" unicode="&#xcd;" horiz-adv-x="184" 
d="M60 714h64v-714h-64v714zM195 889l-98 -141h-48l75 141h71z" />
    <glyph glyph-name="Icircumflex" unicode="&#xce;" horiz-adv-x="184" 
d="M60 714h64v-714h-64v714zM-34 748l96 141h60l96 -141h-60l-66 100l-66 -100h-60z" />
    <glyph glyph-name="Idieresis" unicode="&#xcf;" horiz-adv-x="184" 
d="M60 714h64v-714h-64v714zM-13 871h60v-102h-60v102zM137 871h60v-102h-60v102z" />
    <glyph glyph-name="Eth" unicode="&#xd0;" horiz-adv-x="537" 
d="M56 346h-56v54h56v314h172c52 0 94.667 -7.66699 128 -23s59.833 -38 79.5 -68s33.167 -67.333 40.5 -112s11 -96 11 -154s-3.66699 -109.333 -11 -154s-20.833 -82 -40.5 -112s-46.167 -52.667 -79.5 -68s-76 -23 -128 -23h-172v346zM280 400v-54h-160v-292h104
c35.333 0 65.5 4.83301 90.5 14.5s45.5 26.167 61.5 49.5s27.833 54.333 35.5 93s11.5 87 11.5 145c0 58.667 -3.83301 107.5 -11.5 146.5s-19.5 70.167 -35.5 93.5s-36.5 39.833 -61.5 49.5s-55.167 14.5 -90.5 14.5h-104v-260h160z" />
    <glyph glyph-name="Ntilde" unicode="&#xd1;" horiz-adv-x="537" 
d="M56 714h86l273 -622h2v622h64v-714h-86l-273 622h-2v-622h-64v714zM403 869c0 -10 -1.83398 -20.8311 -5.50098 -32.498s-8.83398 -22.334 -15.501 -32.001s-14.667 -17.667 -24 -24s-20 -9.5 -32 -9.5c-9.33301 0 -17.666 1.16699 -24.999 3.5
s-15.333 6.16602 -24 11.499l-38 21c-10.667 5.33301 -18.667 8 -24 8c-9.33301 0 -17.166 -5.16699 -23.499 -15.5s-10.5 -21.166 -12.5 -32.499h-44c0.666992 10.667 3 21.667 7 33s9.33301 21.833 16 31.5s14.5 17.667 23.5 24s18.833 9.5 29.5 9.5
c11.333 0 20.833 -1.33301 28.5 -4s17.167 -7.33398 28.5 -14.001l26 -15c5.33301 -3.33301 10.5 -6 15.5 -8s9.83301 -3 14.5 -3c5.33301 0 10.333 1.66699 15 5s8.5 7.5 11.5 12.5s5.16699 10.333 6.5 16s2 10.5 2 14.5h44z" />
    <glyph glyph-name="Ograve" unicode="&#xd2;" horiz-adv-x="556" 
d="M50 357c0 128 19.833 221.5 59.5 280.5s95.834 88.5 168.501 88.5c73.333 0 129.666 -29.5 168.999 -88.5s59 -152.5 59 -280.5s-19.667 -221.5 -59 -280.5s-95.666 -88.5 -168.999 -88.5c-72.667 0 -128.834 29.5 -168.501 88.5s-59.5 152.5 -59.5 280.5zM114 357
c0 -58 3.83301 -107 11.5 -147s18.5 -72.5 32.5 -97.5s31.167 -43 51.5 -54s43.166 -16.5 68.499 -16.5s48.166 5.5 68.499 16.5s37.5 29 51.5 54s24.833 57.5 32.5 97.5s11.5 89 11.5 147s-3.83301 107 -11.5 147s-18.5 72.5 -32.5 97.5s-31.167 43 -51.5 54
s-43.166 16.5 -68.499 16.5s-48.166 -5.5 -68.499 -16.5s-37.5 -29 -51.5 -54s-24.833 -57.5 -32.5 -97.5s-11.5 -89 -11.5 -147zM246 889l75 -141h-48l-98 141h71z" />
    <glyph glyph-name="Oacute" unicode="&#xd3;" horiz-adv-x="556" 
d="M50 357c0 128 19.833 221.5 59.5 280.5s95.834 88.5 168.501 88.5c73.333 0 129.666 -29.5 168.999 -88.5s59 -152.5 59 -280.5s-19.667 -221.5 -59 -280.5s-95.666 -88.5 -168.999 -88.5c-72.667 0 -128.834 29.5 -168.501 88.5s-59.5 152.5 -59.5 280.5zM114 357
c0 -58 3.83301 -107 11.5 -147s18.5 -72.5 32.5 -97.5s31.167 -43 51.5 -54s43.166 -16.5 68.499 -16.5s48.166 5.5 68.499 16.5s37.5 29 51.5 54s24.833 57.5 32.5 97.5s11.5 89 11.5 147s-3.83301 107 -11.5 147s-18.5 72.5 -32.5 97.5s-31.167 43 -51.5 54
s-43.166 16.5 -68.499 16.5s-48.166 -5.5 -68.499 -16.5s-37.5 -29 -51.5 -54s-24.833 -57.5 -32.5 -97.5s-11.5 -89 -11.5 -147zM381 889l-98 -141h-48l75 141h71z" />
    <glyph glyph-name="Ocircumflex" unicode="&#xd4;" horiz-adv-x="556" 
d="M50 357c0 128 19.833 221.5 59.5 280.5s95.834 88.5 168.501 88.5c73.333 0 129.666 -29.5 168.999 -88.5s59 -152.5 59 -280.5s-19.667 -221.5 -59 -280.5s-95.666 -88.5 -168.999 -88.5c-72.667 0 -128.834 29.5 -168.501 88.5s-59.5 152.5 -59.5 280.5zM114 357
c0 -58 3.83301 -107 11.5 -147s18.5 -72.5 32.5 -97.5s31.167 -43 51.5 -54s43.166 -16.5 68.499 -16.5s48.166 5.5 68.499 16.5s37.5 29 51.5 54s24.833 57.5 32.5 97.5s11.5 89 11.5 147s-3.83301 107 -11.5 147s-18.5 72.5 -32.5 97.5s-31.167 43 -51.5 54
s-43.166 16.5 -68.499 16.5s-48.166 -5.5 -68.499 -16.5s-37.5 -29 -51.5 -54s-24.833 -57.5 -32.5 -97.5s-11.5 -89 -11.5 -147zM152 748l96 141h60l96 -141h-60l-66 100l-66 -100h-60z" />
    <glyph glyph-name="Otilde" unicode="&#xd5;" horiz-adv-x="556" 
d="M50 357c0 128 19.833 221.5 59.5 280.5s95.834 88.5 168.501 88.5c73.333 0 129.666 -29.5 168.999 -88.5s59 -152.5 59 -280.5s-19.667 -221.5 -59 -280.5s-95.666 -88.5 -168.999 -88.5c-72.667 0 -128.834 29.5 -168.501 88.5s-59.5 152.5 -59.5 280.5zM114 357
c0 -58 3.83301 -107 11.5 -147s18.5 -72.5 32.5 -97.5s31.167 -43 51.5 -54s43.166 -16.5 68.499 -16.5s48.166 5.5 68.499 16.5s37.5 29 51.5 54s24.833 57.5 32.5 97.5s11.5 89 11.5 147s-3.83301 107 -11.5 147s-18.5 72.5 -32.5 97.5s-31.167 43 -51.5 54
s-43.166 16.5 -68.499 16.5s-48.166 -5.5 -68.499 -16.5s-37.5 -29 -51.5 -54s-24.833 -57.5 -32.5 -97.5s-11.5 -89 -11.5 -147zM412 869c0 -10 -1.83398 -20.8311 -5.50098 -32.498s-8.83398 -22.334 -15.501 -32.001s-14.667 -17.667 -24 -24s-20 -9.5 -32 -9.5
c-9.33301 0 -17.666 1.16699 -24.999 3.5s-15.333 6.16602 -24 11.499l-38 21c-10.667 5.33301 -18.667 8 -24 8c-9.33301 0 -17.166 -5.16699 -23.499 -15.5s-10.5 -21.166 -12.5 -32.499h-44c0.666992 10.667 3 21.667 7 33s9.33301 21.833 16 31.5s14.5 17.667 23.5 24
s18.833 9.5 29.5 9.5c11.333 0 20.833 -1.33301 28.5 -4s17.167 -7.33398 28.5 -14.001l26 -15c5.33301 -3.33301 10.5 -6 15.5 -8s9.83301 -3 14.5 -3c5.33301 0 10.333 1.66699 15 5s8.5 7.5 11.5 12.5s5.16699 10.333 6.5 16s2 10.5 2 14.5h44z" />
    <glyph glyph-name="Odieresis" unicode="&#xd6;" horiz-adv-x="556" 
d="M50 357c0 128 19.833 221.5 59.5 280.5s95.834 88.5 168.501 88.5c73.333 0 129.666 -29.5 168.999 -88.5s59 -152.5 59 -280.5s-19.667 -221.5 -59 -280.5s-95.666 -88.5 -168.999 -88.5c-72.667 0 -128.834 29.5 -168.501 88.5s-59.5 152.5 -59.5 280.5zM114 357
c0 -58 3.83301 -107 11.5 -147s18.5 -72.5 32.5 -97.5s31.167 -43 51.5 -54s43.166 -16.5 68.499 -16.5s48.166 5.5 68.499 16.5s37.5 29 51.5 54s24.833 57.5 32.5 97.5s11.5 89 11.5 147s-3.83301 107 -11.5 147s-18.5 72.5 -32.5 97.5s-31.167 43 -51.5 54
s-43.166 16.5 -68.499 16.5s-48.166 -5.5 -68.499 -16.5s-37.5 -29 -51.5 -54s-24.833 -57.5 -32.5 -97.5s-11.5 -89 -11.5 -147zM173 871h60v-102h-60v102zM323 871h60v-102h-60v102z" />
    <glyph glyph-name="multiply" unicode="&#xd7;" horiz-adv-x="600" 
d="M300 218l-190 -190l-36 35l191 190l-191 191l36 35l190 -190l190 190l36 -35l-191 -191l191 -190l-36 -35z" />
    <glyph glyph-name="Oslash" unicode="&#xd8;" horiz-adv-x="556" 
d="M374 634c-24.667 25.333 -56.668 38 -96.001 38c-25.333 0 -48.166 -5.5 -68.499 -16.5s-37.5 -29 -51.5 -54s-24.833 -57.5 -32.5 -97.5s-11.5 -89 -11.5 -147c0 -108 13.667 -187.333 41 -238zM182.999 80c12.667 -13.333 26.834 -23 42.501 -29s33.167 -9 52.5 -9
c25.333 0 48.166 5.5 68.499 16.5s37.5 29 51.5 54s24.833 57.5 32.5 97.5s11.5 89 11.5 147c0 56 -3.5 103.5 -10.5 142.5s-17.167 70.833 -30.5 95.5zM95.999 -26l32.999 78c-26 28.667 -45.667 68 -59 118s-20 112.333 -20 187c0 128 19.833 221.5 59.5 280.5
s95.834 88.5 168.501 88.5c47.333 0 86.666 -11.333 117.999 -34l27 64l37 -14l-33 -79c26 -29.333 45.667 -69 59 -119s20 -112.333 20 -187c0 -128 -19.667 -221.5 -59 -280.5s-95.666 -88.5 -168.999 -88.5c-46 0 -85.333 11.333 -118 34l-27 -64z" />
    <glyph glyph-name="Ugrave" unicode="&#xd9;" horiz-adv-x="500" 
d="M46 714h63.998v-513c0 -106 46.667 -159 140 -159s140 53 140 159v513h64v-514c0 -74.667 -17.667 -128.667 -53 -162s-85.666 -50 -150.999 -50s-115.666 16.667 -150.999 50s-53 87.333 -53 162v514zM217.998 889l75 -141h-48l-98 141h71z" />
    <glyph glyph-name="Uacute" unicode="&#xda;" horiz-adv-x="500" 
d="M46 714h63.998v-513c0 -106 46.667 -159 140 -159s140 53 140 159v513h64v-514c0 -74.667 -17.667 -128.667 -53 -162s-85.666 -50 -150.999 -50s-115.666 16.667 -150.999 50s-53 87.333 -53 162v514zM352.998 889l-98 -141h-48l75 141h71z" />
    <glyph glyph-name="Ucircumflex" unicode="&#xdb;" horiz-adv-x="500" 
d="M46 714h63.998v-513c0 -106 46.667 -159 140 -159s140 53 140 159v513h64v-514c0 -74.667 -17.667 -128.667 -53 -162s-85.666 -50 -150.999 -50s-115.666 16.667 -150.999 50s-53 87.333 -53 162v514zM123.998 748l96 141h60l96 -141h-60l-66 100l-66 -100h-60z" />
    <glyph glyph-name="Udieresis" unicode="&#xdc;" horiz-adv-x="500" 
d="M46 714h63.998v-513c0 -106 46.667 -159 140 -159s140 53 140 159v513h64v-514c0 -74.667 -17.667 -128.667 -53 -162s-85.666 -50 -150.999 -50s-115.666 16.667 -150.999 50s-53 87.333 -53 162v514zM144.998 871h60v-102h-60v102zM294.998 871h60v-102h-60v102z" />
    <glyph glyph-name="Yacute" unicode="&#xdd;" horiz-adv-x="444" 
d="M190 286l-193 428h68l157 -356l157 356h68l-193 -428v-286h-64v286zM325 889l-98 -141h-48l75 141h71z" />
    <glyph glyph-name="Thorn" unicode="&#xde;" horiz-adv-x="480" 
d="M120 224h109c21.333 0 41.166 2.5 59.499 7.5s34.333 13.333 48 25s24.5 27 32.5 46s12 42.167 12 69.5s-4 50.5 -12 69.5s-18.833 34.333 -32.5 46s-29.667 20 -48 25s-38.166 7.5 -59.499 7.5h-109v-296zM56 714l64 0.000976562v-140h134c33.333 0 62 -5 86 -15
s43.833 -23.833 59.5 -41.5s27.167 -38.834 34.5 -63.501s11 -52 11 -82c0 -27.333 -3.66699 -53.333 -11 -78s-19.5 -46.167 -36.5 -64.5s-39.5 -32.833 -67.5 -43.5s-62.333 -16 -103 -16h-107v-170h-64v714z" />
    <glyph glyph-name="germandbls" unicode="&#xdf;" horiz-adv-x="444" 
d="M52 539c0 60.667 14.8291 106.335 44.4961 137.002s70.5 46 122.5 46c50 0 89.333 -14.333 118 -43s43 -69.334 43 -122.001c0 -14.667 -1.83301 -29.667 -5.5 -45s-9.5 -29.833 -17.5 -43.5s-18.667 -25.5 -32 -35.5s-29.666 -17 -48.999 -21v-2
c28.667 -3.33301 52 -11.833 70 -25.5s32 -29.834 42 -48.501s16.833 -38.667 20.5 -60s5.5 -41.333 5.5 -60c0 -70 -17 -124.5 -51 -163.5s-81 -58.5 -141 -58.5c-7.33301 0 -14.666 0.5 -21.999 1.5s-13.666 2.5 -18.999 4.5v50c8 -4 19 -6 33 -6
c18.667 0 36.334 3.5 53.001 10.5s31.167 17.667 43.5 32s22 32.5 29 54.5s10.5 48.333 10.5 79c0 106.667 -47.333 160 -142 160h-22v50h17c34.667 0 62.167 10.167 82.5 30.5s30.5 51.5 30.5 93.5c0 34 -8.16699 62.167 -24.5 84.5s-41.5 33.5 -75.5 33.5
c-30 0 -54.833 -10.167 -74.5 -30.5s-29.5 -56.5 -29.5 -108.5v-533h-60v539z" />
    <glyph glyph-name="agrave" unicode="&#xe0;" 
d="M47 373c0 54.667 13.167 96.667 39.5 126s67.833 44 124.5 44c55.333 0 94.166 -13 116.499 -39s33.5 -60 33.5 -102v-314c0 -29.333 10.333 -44 31 -44h17v-44c-10.667 -4 -20 -6 -28 -6c-23.333 0 -42 4 -56 12s-21 26 -21 54v18h-2
c-12 -35.333 -30.333 -59.166 -55 -71.499s-52 -18.5 -82 -18.5c-46.667 0 -80.834 13.5 -102.501 40.5s-32.5 63.5 -32.5 109.5c0 35.333 8.33301 66 25 92s44 44.333 82 55l113 32c10.667 3.33301 19.334 6.5 26.001 9.5s11.834 7.5 15.501 13.5s6.16699 13.833 7.5 23.5
s2 22.167 2 37.5c0 34 -8.5 57.833 -25.5 71.5s-39.167 20.5 -66.5 20.5c-36 0 -62 -10.333 -78 -31s-24 -50.334 -24 -89.001h-60zM301 300l-2.00098 -0.00195312c-3.33301 -9.33301 -11.833 -16.666 -25.5 -21.999s-26.5 -9.66602 -38.5 -12.999l-50 -13
c-30 -8 -52.667 -20.333 -68 -37s-23 -41 -23 -73c0 -31.333 7.5 -56.5 22.5 -75.5s35.5 -28.5 61.5 -28.5c36.667 0 66.334 13 89.001 39s34 63 34 111v112zM180.999 737.998l75 -141h-48l-98 141h71z" />
    <glyph glyph-name="aacute" unicode="&#xe1;" 
d="M47 373c0 54.667 13.167 96.667 39.5 126s67.833 44 124.5 44c55.333 0 94.166 -13 116.499 -39s33.5 -60 33.5 -102v-314c0 -29.333 10.333 -44 31 -44h17v-44c-10.667 -4 -20 -6 -28 -6c-23.333 0 -42 4 -56 12s-21 26 -21 54v18h-2
c-12 -35.333 -30.333 -59.166 -55 -71.499s-52 -18.5 -82 -18.5c-46.667 0 -80.834 13.5 -102.501 40.5s-32.5 63.5 -32.5 109.5c0 35.333 8.33301 66 25 92s44 44.333 82 55l113 32c10.667 3.33301 19.334 6.5 26.001 9.5s11.834 7.5 15.501 13.5s6.16699 13.833 7.5 23.5
s2 22.167 2 37.5c0 34 -8.5 57.833 -25.5 71.5s-39.167 20.5 -66.5 20.5c-36 0 -62 -10.333 -78 -31s-24 -50.334 -24 -89.001h-60zM301 300l-2.00098 -0.00195312c-3.33301 -9.33301 -11.833 -16.666 -25.5 -21.999s-26.5 -9.66602 -38.5 -12.999l-50 -13
c-30 -8 -52.667 -20.333 -68 -37s-23 -41 -23 -73c0 -31.333 7.5 -56.5 22.5 -75.5s35.5 -28.5 61.5 -28.5c36.667 0 66.334 13 89.001 39s34 63 34 111v112zM315.999 737.998l-98 -141h-48l75 141h71z" />
    <glyph glyph-name="acircumflex" unicode="&#xe2;" 
d="M47 373c0 54.667 13.167 96.667 39.5 126s67.833 44 124.5 44c55.333 0 94.166 -13 116.499 -39s33.5 -60 33.5 -102v-314c0 -29.333 10.333 -44 31 -44h17v-44c-10.667 -4 -20 -6 -28 -6c-23.333 0 -42 4 -56 12s-21 26 -21 54v18h-2
c-12 -35.333 -30.333 -59.166 -55 -71.499s-52 -18.5 -82 -18.5c-46.667 0 -80.834 13.5 -102.501 40.5s-32.5 63.5 -32.5 109.5c0 35.333 8.33301 66 25 92s44 44.333 82 55l113 32c10.667 3.33301 19.334 6.5 26.001 9.5s11.834 7.5 15.501 13.5s6.16699 13.833 7.5 23.5
s2 22.167 2 37.5c0 34 -8.5 57.833 -25.5 71.5s-39.167 20.5 -66.5 20.5c-36 0 -62 -10.333 -78 -31s-24 -50.334 -24 -89.001h-60zM301 300l-2.00098 -0.00195312c-3.33301 -9.33301 -11.833 -16.666 -25.5 -21.999s-26.5 -9.66602 -38.5 -12.999l-50 -13
c-30 -8 -52.667 -20.333 -68 -37s-23 -41 -23 -73c0 -31.333 7.5 -56.5 22.5 -75.5s35.5 -28.5 61.5 -28.5c36.667 0 66.334 13 89.001 39s34 63 34 111v112zM86.999 596.998l96 141h60l96 -141h-60l-66 100l-66 -100h-60z" />
    <glyph glyph-name="atilde" unicode="&#xe3;" 
d="M47 373c0 54.667 13.167 96.667 39.5 126s67.833 44 124.5 44c55.333 0 94.166 -13 116.499 -39s33.5 -60 33.5 -102v-314c0 -29.333 10.333 -44 31 -44h17v-44c-10.667 -4 -20 -6 -28 -6c-23.333 0 -42 4 -56 12s-21 26 -21 54v18h-2
c-12 -35.333 -30.333 -59.166 -55 -71.499s-52 -18.5 -82 -18.5c-46.667 0 -80.834 13.5 -102.501 40.5s-32.5 63.5 -32.5 109.5c0 35.333 8.33301 66 25 92s44 44.333 82 55l113 32c10.667 3.33301 19.334 6.5 26.001 9.5s11.834 7.5 15.501 13.5s6.16699 13.833 7.5 23.5
s2 22.167 2 37.5c0 34 -8.5 57.833 -25.5 71.5s-39.167 20.5 -66.5 20.5c-36 0 -62 -10.333 -78 -31s-24 -50.334 -24 -89.001h-60zM301 300l-2.00098 -0.00195312c-3.33301 -9.33301 -11.833 -16.666 -25.5 -21.999s-26.5 -9.66602 -38.5 -12.999l-50 -13
c-30 -8 -52.667 -20.333 -68 -37s-23 -41 -23 -73c0 -31.333 7.5 -56.5 22.5 -75.5s35.5 -28.5 61.5 -28.5c36.667 0 66.334 13 89.001 39s34 63 34 111v112zM346.999 717.998c0 -10 -1.83398 -20.8311 -5.50098 -32.498s-8.83398 -22.334 -15.501 -32.001
s-14.667 -17.667 -24 -24s-20 -9.5 -32 -9.5c-9.33301 0 -17.666 1.16699 -24.999 3.5s-15.333 6.16602 -24 11.499l-38 21c-10.667 5.33301 -18.667 8 -24 8c-9.33301 0 -17.166 -5.16699 -23.499 -15.5s-10.5 -21.166 -12.5 -32.499h-44c0.666992 10.667 3 21.667 7 33
s9.33301 21.833 16 31.5s14.5 17.667 23.5 24s18.833 9.5 29.5 9.5c11.333 0 20.833 -1.33301 28.5 -4s17.167 -7.33398 28.5 -14.001l26 -15c5.33301 -3.33301 10.5 -6 15.5 -8s9.83301 -3 14.5 -3c5.33301 0 10.333 1.66699 15 5s8.5 7.5 11.5 12.5s5.16699 10.333 6.5 16
s2 10.5 2 14.5h44z" />
    <glyph glyph-name="adieresis" unicode="&#xe4;" 
d="M47 373c0 54.667 13.167 96.667 39.5 126s67.833 44 124.5 44c55.333 0 94.166 -13 116.499 -39s33.5 -60 33.5 -102v-314c0 -29.333 10.333 -44 31 -44h17v-44c-10.667 -4 -20 -6 -28 -6c-23.333 0 -42 4 -56 12s-21 26 -21 54v18h-2
c-12 -35.333 -30.333 -59.166 -55 -71.499s-52 -18.5 -82 -18.5c-46.667 0 -80.834 13.5 -102.501 40.5s-32.5 63.5 -32.5 109.5c0 35.333 8.33301 66 25 92s44 44.333 82 55l113 32c10.667 3.33301 19.334 6.5 26.001 9.5s11.834 7.5 15.501 13.5s6.16699 13.833 7.5 23.5
s2 22.167 2 37.5c0 34 -8.5 57.833 -25.5 71.5s-39.167 20.5 -66.5 20.5c-36 0 -62 -10.333 -78 -31s-24 -50.334 -24 -89.001h-60zM301 300l-2.00098 -0.00195312c-3.33301 -9.33301 -11.833 -16.666 -25.5 -21.999s-26.5 -9.66602 -38.5 -12.999l-50 -13
c-30 -8 -52.667 -20.333 -68 -37s-23 -41 -23 -73c0 -31.333 7.5 -56.5 22.5 -75.5s35.5 -28.5 61.5 -28.5c36.667 0 66.334 13 89.001 39s34 63 34 111v112zM107.999 719.998h60v-102h-60v102zM257.999 719.998h60v-102h-60v102z" />
    <glyph glyph-name="aring" unicode="&#xe5;" 
d="M47 373c0 54.667 13.167 96.667 39.5 126s67.833 44 124.5 44c55.333 0 94.166 -13 116.499 -39s33.5 -60 33.5 -102v-314c0 -29.333 10.333 -44 31 -44h17v-44c-10.667 -4 -20 -6 -28 -6c-23.333 0 -42 4 -56 12s-21 26 -21 54v18h-2
c-12 -35.333 -30.333 -59.166 -55 -71.499s-52 -18.5 -82 -18.5c-46.667 0 -80.834 13.5 -102.501 40.5s-32.5 63.5 -32.5 109.5c0 35.333 8.33301 66 25 92s44 44.333 82 55l113 32c10.667 3.33301 19.334 6.5 26.001 9.5s11.834 7.5 15.501 13.5s6.16699 13.833 7.5 23.5
s2 22.167 2 37.5c0 34 -8.5 57.833 -25.5 71.5s-39.167 20.5 -66.5 20.5c-36 0 -62 -10.333 -78 -31s-24 -50.334 -24 -89.001h-60zM301 300l-2.00098 -0.00195312c-3.33301 -9.33301 -11.833 -16.666 -25.5 -21.999s-26.5 -9.66602 -38.5 -12.999l-50 -13
c-30 -8 -52.667 -20.333 -68 -37s-23 -41 -23 -73c0 -31.333 7.5 -56.5 22.5 -75.5s35.5 -28.5 61.5 -28.5c36.667 0 66.334 13 89.001 39s34 63 34 111v112zM117.999 680.998c0 13.333 2.5 25.666 7.5 36.999s11.833 21.333 20.5 30s18.834 15.5 30.501 20.5
s23.834 7.5 36.501 7.5c13.333 0 25.666 -2.5 36.999 -7.5s21.333 -11.833 30 -20.5s15.5 -18.667 20.5 -30s7.5 -23.666 7.5 -36.999c0 -12.667 -2.5 -24.834 -7.5 -36.501s-11.833 -21.834 -20.5 -30.501s-18.667 -15.5 -30 -20.5s-23.666 -7.5 -36.999 -7.5
c-12.667 0 -24.834 2.5 -36.501 7.5s-21.834 11.833 -30.501 20.5s-15.5 18.834 -20.5 30.501s-7.5 23.834 -7.5 36.501zM153.999 680.998c0 -16.667 5.66699 -30.667 17 -42s25.333 -17 42 -17s30.667 5.66699 42 17s17 25.333 17 42s-5.66699 30.667 -17 42
s-25.333 17 -42 17s-30.667 -5.66699 -42 -17s-17 -25.333 -17 -42z" />
    <glyph glyph-name="ae" unicode="&#xe6;" horiz-adv-x="648" 
d="M47 373c0 54.667 13.0039 96.668 39.0039 126.001s65.333 44 118 44c30.667 0 57.5 -6.83301 80.5 -20.5s38.167 -35.5 45.5 -65.5h2c9.33301 28.667 25.666 50.167 48.999 64.5s48.333 21.5 75 21.5c59.333 0 101.166 -22.833 125.499 -68.5s36.5 -116.167 36.5 -211.5
h-274v-29c0 -68 9.83301 -117.667 29.5 -149s44.5 -47 74.5 -47c14.667 0 28.334 3.5 41.001 10.5s23.667 16.5 33 28.5s16.833 26.5 22.5 43.5s8.5 35.5 8.5 55.5h60c-3.33301 -60.667 -19.333 -107.167 -48 -139.5s-67 -48.5 -115 -48.5c-35.333 0 -64.333 10 -87 30
s-39.334 46.667 -50.001 80h-2c-10.667 -38.667 -28.667 -66.667 -54 -84s-56 -26 -92 -26c-46.667 0 -80.834 13.5 -102.501 40.5s-32.5 63.5 -32.5 109.5c0 22.667 2.5 42.167 7.5 58.5s12.667 30.333 23 42s23.833 21.667 40.5 30s36.667 15.5 60 21.5l72 19
c19.333 5.33301 32.666 13 39.999 23s11 28.333 11 55c0 38 -6.33301 65.167 -19 81.5s-33.667 24.5 -63 24.5c-32 0 -55.833 -10.333 -71.5 -31s-23.5 -50.334 -23.5 -89.001h-60zM175.004 247.001c-30.667 -8.66699 -51.833 -21.165 -63.5 -37.498
s-17.5 -38.833 -17.5 -67.5c0 -31.333 7.5 -56.5 22.5 -75.5s35.5 -28.5 61.5 -28.5c12 0 24.167 2.5 36.5 7.5s23.666 13 33.999 24s18.833 25.167 25.5 42.5s10 38.333 10 63v111h-2c-3.33301 -4.66699 -9.16602 -8.83398 -17.499 -12.501s-17.5 -6.83398 -27.5 -9.50098z
M554.005 313.003c-0.666992 66 -10.5 112.5 -29.5 139.5s-44.167 40.5 -75.5 40.5c-30.667 0 -55.5 -13.5 -74.5 -40.5s-29.167 -73.5 -30.5 -139.5h210z" />
    <glyph glyph-name="ccedilla" unicode="&#xe7;" horiz-adv-x="407" 
d="M202 -12c-26.667 0.666992 -50.668 6.3291 -72.001 16.9961s-39.5 27.167 -54.5 49.5s-26.333 51 -34 86s-11.5 76.833 -11.5 125.5c0 92.667 15.833 162 47.5 208s76.834 69 135.501 69c50 0 89 -14.667 117 -44s43.667 -71.333 47 -126h-60
c-3.33301 42 -13.5 72.5 -30.5 91.5s-41.5 28.5 -73.5 28.5c-16 0 -31.333 -3 -46 -9s-27.334 -17.5 -38.001 -34.5s-19.167 -40.167 -25.5 -69.5s-9.5 -67.666 -9.5 -114.999c0 -50 3.33301 -90 10 -120s15.167 -52.833 25.5 -68.5s22.333 -26 36 -31s27.5 -7.5 41.5 -7.5
c30.667 0 55.334 11.333 74.001 34s30.667 57.334 36 104.001h60c-4 -50 -17.833 -91.667 -41.5 -125s-55.5 -53.666 -95.5 -60.999l-36 -46l2 -1c4.66699 2 9.83398 3.33301 15.501 4s11.834 1 18.501 1c21.333 0 39.5 -6.5 54.5 -19.5s22.5 -28.833 22.5 -47.5
c0 -14 -3.33301 -26.333 -10 -37s-15.167 -19.5 -25.5 -26.5s-21.833 -12.333 -34.5 -16s-24.667 -5.5 -36 -5.5c-15.333 0 -31.5 2 -48.5 6s-30.5 8.66699 -40.5 14l12 31c8 -4 17.167 -7.5 27.5 -10.5s21.166 -4.5 32.499 -4.5c24 0 41.5 4.33301 52.5 13s16.5 19 16.5 31
c0 12.667 -5.5 21.834 -16.5 27.501s-23.167 8.5 -36.5 8.5c-18.667 0 -33.334 -3.33301 -44.001 -10l-13 17z" />
    <glyph glyph-name="egrave" unicode="&#xe8;" 
d="M385 176c-4.66699 -56.667 -21.833 -102.167 -51.5 -136.5s-69.5 -51.5 -119.5 -51.5c-28 0 -53 5.16699 -75 15.5s-40.667 26.5 -56 48.5s-27 50.667 -35 86s-12 78 -12 128c0 92.667 15.833 162 47.5 208s76.834 69 135.501 69c59.333 0 102.666 -20.667 129.999 -62
s41 -106.666 41 -195.999v-22h-290v-25c0 -38 3.16699 -69.833 9.5 -95.5s14.666 -46.334 24.999 -62.001s22.333 -26.667 36 -33s27.834 -9.5 42.501 -9.5c64.667 0 102 46 112 138h60zM326.001 313c-0.666992 66 -10.332 112.5 -28.999 139.5s-46.667 40.5 -84 40.5
c-36.667 0 -64.334 -13.5 -83.001 -40.5s-28.667 -73.5 -30 -139.5h226zM186.003 738l75 -141h-48l-98 141h71z" />
    <glyph glyph-name="eacute" unicode="&#xe9;" 
d="M385 176c-4.66699 -56.667 -21.833 -102.167 -51.5 -136.5s-69.5 -51.5 -119.5 -51.5c-28 0 -53 5.16699 -75 15.5s-40.667 26.5 -56 48.5s-27 50.667 -35 86s-12 78 -12 128c0 92.667 15.833 162 47.5 208s76.834 69 135.501 69c59.333 0 102.666 -20.667 129.999 -62
s41 -106.666 41 -195.999v-22h-290v-25c0 -38 3.16699 -69.833 9.5 -95.5s14.666 -46.334 24.999 -62.001s22.333 -26.667 36 -33s27.834 -9.5 42.501 -9.5c64.667 0 102 46 112 138h60zM326.001 313c-0.666992 66 -10.332 112.5 -28.999 139.5s-46.667 40.5 -84 40.5
c-36.667 0 -64.334 -13.5 -83.001 -40.5s-28.667 -73.5 -30 -139.5h226zM321.003 738l-98 -141h-48l75 141h71z" />
    <glyph glyph-name="ecircumflex" unicode="&#xea;" 
d="M385 176c-4.66699 -56.667 -21.833 -102.167 -51.5 -136.5s-69.5 -51.5 -119.5 -51.5c-28 0 -53 5.16699 -75 15.5s-40.667 26.5 -56 48.5s-27 50.667 -35 86s-12 78 -12 128c0 92.667 15.833 162 47.5 208s76.834 69 135.501 69c59.333 0 102.666 -20.667 129.999 -62
s41 -106.666 41 -195.999v-22h-290v-25c0 -38 3.16699 -69.833 9.5 -95.5s14.666 -46.334 24.999 -62.001s22.333 -26.667 36 -33s27.834 -9.5 42.501 -9.5c64.667 0 102 46 112 138h60zM326.001 313c-0.666992 66 -10.332 112.5 -28.999 139.5s-46.667 40.5 -84 40.5
c-36.667 0 -64.334 -13.5 -83.001 -40.5s-28.667 -73.5 -30 -139.5h226zM92.0029 597l96 141h60l96 -141h-60l-66 100l-66 -100h-60z" />
    <glyph glyph-name="edieresis" unicode="&#xeb;" 
d="M385 176c-4.66699 -56.667 -21.833 -102.167 -51.5 -136.5s-69.5 -51.5 -119.5 -51.5c-28 0 -53 5.16699 -75 15.5s-40.667 26.5 -56 48.5s-27 50.667 -35 86s-12 78 -12 128c0 92.667 15.833 162 47.5 208s76.834 69 135.501 69c59.333 0 102.666 -20.667 129.999 -62
s41 -106.666 41 -195.999v-22h-290v-25c0 -38 3.16699 -69.833 9.5 -95.5s14.666 -46.334 24.999 -62.001s22.333 -26.667 36 -33s27.834 -9.5 42.501 -9.5c64.667 0 102 46 112 138h60zM326.001 313c-0.666992 66 -10.332 112.5 -28.999 139.5s-46.667 40.5 -84 40.5
c-36.667 0 -64.334 -13.5 -83.001 -40.5s-28.667 -73.5 -30 -139.5h226zM113.003 720h60v-102h-60v102zM263.003 720h60v-102h-60v102z" />
    <glyph glyph-name="igrave" unicode="&#xec;" horiz-adv-x="184" 
d="M62 531h60v-531h-60v531zM60 738l75 -141h-48l-98 141h71z" />
    <glyph glyph-name="iacute" unicode="&#xed;" horiz-adv-x="184" 
d="M62 531h60v-531h-60v531zM195 738l-98 -141h-48l75 141h71z" />
    <glyph glyph-name="icircumflex" unicode="&#xee;" horiz-adv-x="184" 
d="M62 531h60v-531h-60v531zM-34 597l96 141h60l96 -141h-60l-66 100l-66 -100h-60z" />
    <glyph glyph-name="idieresis" unicode="&#xef;" horiz-adv-x="184" 
d="M62 531h60v-531h-60v531zM-13 720h60v-102h-60v102zM137 720h60v-102h-60v102z" />
    <glyph glyph-name="eth" unicode="&#xf0;" 
d="M94 260c0 -40.667 3 -75.167 9 -103.5s14.333 -51.333 25 -69s23.334 -30.334 38.001 -38.001s30.334 -11.5 47.001 -11.5s32.334 3.83301 47.001 11.5s27.334 20.334 38.001 38.001s19 40.667 25 69s9 62.833 9 103.5s-3 75 -9 103s-14.333 50.833 -25 68.5
s-23.334 30.334 -38.001 38.001s-30.334 11.5 -47.001 11.5s-32.334 -3.83301 -47.001 -11.5s-27.334 -20.334 -38.001 -38.001s-19 -40.5 -25 -68.5s-9 -62.333 -9 -103zM80 630l74.002 43.999c-11.333 12 -23 23.5 -35 34.5l-38 33.5l47 32l39 -34.5
c12.667 -11.667 25 -24.167 37 -37.5l72 42l36 -30l-75 -45c23.333 -24.667 44.666 -51.167 63.999 -79.5s36 -58.833 50 -91.5s25 -68.167 33 -106.5s12 -80.166 12 -125.499c0 -93.333 -15.833 -163 -47.5 -209s-76.834 -69 -135.501 -69s-103.834 22.833 -135.501 68.5
s-47.5 113.5 -47.5 203.5c0 89.333 16 156.833 48 202.5s73.333 68.5 124 68.5c17.333 0 34.333 -3.66699 51 -11s32.334 -21.333 47.001 -42l2 2c-34.667 59.333 -73 112.333 -115 159l-69 -41z" />
    <glyph glyph-name="ntilde" unicode="&#xf1;" horiz-adv-x="444" 
d="M58 531h53.999v-74h2c15.333 30 35 51.833 59 65.5s49.667 20.5 77 20.5c40.667 0 73.5 -11.167 98.5 -33.5s37.5 -58.5 37.5 -108.5v-401h-60v384c0 72.667 -30.333 109 -91 109c-35.333 0 -63.666 -12.333 -84.999 -37s-32 -57.667 -32 -99v-357h-60v531zM355.999 718
c0 -10 -1.83398 -20.8311 -5.50098 -32.498s-8.83398 -22.334 -15.501 -32.001s-14.667 -17.667 -24 -24s-20 -9.5 -32 -9.5c-9.33301 0 -17.666 1.16699 -24.999 3.5s-15.333 6.16602 -24 11.499l-38 21c-10.667 5.33301 -18.667 8 -24 8
c-9.33301 0 -17.166 -5.16699 -23.499 -15.5s-10.5 -21.166 -12.5 -32.499h-44c0.666992 10.667 3 21.667 7 33s9.33301 21.833 16 31.5s14.5 17.667 23.5 24s18.833 9.5 29.5 9.5c11.333 0 20.833 -1.33301 28.5 -4s17.167 -7.33398 28.5 -14.001l26 -15
c5.33301 -3.33301 10.5 -6 15.5 -8s9.83301 -3 14.5 -3c5.33301 0 10.333 1.66699 15 5s8.5 7.5 11.5 12.5s5.16699 10.333 6.5 16s2 10.5 2 14.5h44z" />
    <glyph glyph-name="ograve" unicode="&#xf2;" 
d="M30 266c0 92.667 15.833 162 47.5 208s76.834 69 135.501 69s103.834 -23 135.501 -69s47.5 -115.333 47.5 -208c0 -93.333 -15.833 -163 -47.5 -209s-76.834 -69 -135.501 -69s-103.834 23 -135.501 69s-47.5 115.667 -47.5 209zM94 266c0 -42.667 3 -78.5 9 -107.5
s14.333 -52.5 25 -70.5s23.334 -30.833 38.001 -38.5s30.334 -11.5 47.001 -11.5s32.334 3.83301 47.001 11.5s27.334 20.5 38.001 38.5s19 41.5 25 70.5s9 64.833 9 107.5c0 42 -3 77.5 -9 106.5s-14.333 52.5 -25 70.5s-23.334 30.833 -38.001 38.5
s-30.334 11.5 -47.001 11.5s-32.334 -3.83301 -47.001 -11.5s-27.334 -20.5 -38.001 -38.5s-19 -41.5 -25 -70.5s-9 -64.5 -9 -106.5zM181 738l75 -141h-48l-98 141h71z" />
    <glyph glyph-name="oacute" unicode="&#xf3;" 
d="M30 266c0 92.667 15.833 162 47.5 208s76.834 69 135.501 69s103.834 -23 135.501 -69s47.5 -115.333 47.5 -208c0 -93.333 -15.833 -163 -47.5 -209s-76.834 -69 -135.501 -69s-103.834 23 -135.501 69s-47.5 115.667 -47.5 209zM94 266c0 -42.667 3 -78.5 9 -107.5
s14.333 -52.5 25 -70.5s23.334 -30.833 38.001 -38.5s30.334 -11.5 47.001 -11.5s32.334 3.83301 47.001 11.5s27.334 20.5 38.001 38.5s19 41.5 25 70.5s9 64.833 9 107.5c0 42 -3 77.5 -9 106.5s-14.333 52.5 -25 70.5s-23.334 30.833 -38.001 38.5
s-30.334 11.5 -47.001 11.5s-32.334 -3.83301 -47.001 -11.5s-27.334 -20.5 -38.001 -38.5s-19 -41.5 -25 -70.5s-9 -64.5 -9 -106.5zM316 738l-98 -141h-48l75 141h71z" />
    <glyph glyph-name="ocircumflex" unicode="&#xf4;" 
d="M30 266c0 92.667 15.833 162 47.5 208s76.834 69 135.501 69s103.834 -23 135.501 -69s47.5 -115.333 47.5 -208c0 -93.333 -15.833 -163 -47.5 -209s-76.834 -69 -135.501 -69s-103.834 23 -135.501 69s-47.5 115.667 -47.5 209zM94 266c0 -42.667 3 -78.5 9 -107.5
s14.333 -52.5 25 -70.5s23.334 -30.833 38.001 -38.5s30.334 -11.5 47.001 -11.5s32.334 3.83301 47.001 11.5s27.334 20.5 38.001 38.5s19 41.5 25 70.5s9 64.833 9 107.5c0 42 -3 77.5 -9 106.5s-14.333 52.5 -25 70.5s-23.334 30.833 -38.001 38.5
s-30.334 11.5 -47.001 11.5s-32.334 -3.83301 -47.001 -11.5s-27.334 -20.5 -38.001 -38.5s-19 -41.5 -25 -70.5s-9 -64.5 -9 -106.5zM87 597l96 141h60l96 -141h-60l-66 100l-66 -100h-60z" />
    <glyph glyph-name="otilde" unicode="&#xf5;" 
d="M30 266c0 92.667 15.833 162 47.5 208s76.834 69 135.501 69s103.834 -23 135.501 -69s47.5 -115.333 47.5 -208c0 -93.333 -15.833 -163 -47.5 -209s-76.834 -69 -135.501 -69s-103.834 23 -135.501 69s-47.5 115.667 -47.5 209zM94 266c0 -42.667 3 -78.5 9 -107.5
s14.333 -52.5 25 -70.5s23.334 -30.833 38.001 -38.5s30.334 -11.5 47.001 -11.5s32.334 3.83301 47.001 11.5s27.334 20.5 38.001 38.5s19 41.5 25 70.5s9 64.833 9 107.5c0 42 -3 77.5 -9 106.5s-14.333 52.5 -25 70.5s-23.334 30.833 -38.001 38.5
s-30.334 11.5 -47.001 11.5s-32.334 -3.83301 -47.001 -11.5s-27.334 -20.5 -38.001 -38.5s-19 -41.5 -25 -70.5s-9 -64.5 -9 -106.5zM347 718c0 -10 -1.83398 -20.8311 -5.50098 -32.498s-8.83398 -22.334 -15.501 -32.001s-14.667 -17.667 -24 -24s-20 -9.5 -32 -9.5
c-9.33301 0 -17.666 1.16699 -24.999 3.5s-15.333 6.16602 -24 11.499l-38 21c-10.667 5.33301 -18.667 8 -24 8c-9.33301 0 -17.166 -5.16699 -23.499 -15.5s-10.5 -21.166 -12.5 -32.499h-44c0.666992 10.667 3 21.667 7 33s9.33301 21.833 16 31.5s14.5 17.667 23.5 24
s18.833 9.5 29.5 9.5c11.333 0 20.833 -1.33301 28.5 -4s17.167 -7.33398 28.5 -14.001l26 -15c5.33301 -3.33301 10.5 -6 15.5 -8s9.83301 -3 14.5 -3c5.33301 0 10.333 1.66699 15 5s8.5 7.5 11.5 12.5s5.16699 10.333 6.5 16s2 10.5 2 14.5h44z" />
    <glyph glyph-name="odieresis" unicode="&#xf6;" 
d="M30 266c0 92.667 15.833 162 47.5 208s76.834 69 135.501 69s103.834 -23 135.501 -69s47.5 -115.333 47.5 -208c0 -93.333 -15.833 -163 -47.5 -209s-76.834 -69 -135.501 -69s-103.834 23 -135.501 69s-47.5 115.667 -47.5 209zM94 266c0 -42.667 3 -78.5 9 -107.5
s14.333 -52.5 25 -70.5s23.334 -30.833 38.001 -38.5s30.334 -11.5 47.001 -11.5s32.334 3.83301 47.001 11.5s27.334 20.5 38.001 38.5s19 41.5 25 70.5s9 64.833 9 107.5c0 42 -3 77.5 -9 106.5s-14.333 52.5 -25 70.5s-23.334 30.833 -38.001 38.5
s-30.334 11.5 -47.001 11.5s-32.334 -3.83301 -47.001 -11.5s-27.334 -20.5 -38.001 -38.5s-19 -41.5 -25 -70.5s-9 -64.5 -9 -106.5zM108 720h60v-102h-60v102zM258 720h60v-102h-60v102z" />
    <glyph glyph-name="divide" unicode="&#xf7;" horiz-adv-x="600" 
d="M47 278h506v-50h-506v50zM245 459c0 15.333 5.33301 28.333 16 39s23.667 16 39 16s28.333 -5.33301 39 -16s16 -23.667 16 -39s-5.33301 -28.333 -16 -39s-23.667 -16 -39 -16s-28.333 5.33301 -39 16s-16 23.667 -16 39zM245 47c0 15.333 5.33301 28.333 16 39
s23.667 16 39 16s28.333 -5.33301 39 -16s16 -23.667 16 -39s-5.33301 -28.333 -16 -39s-23.667 -16 -39 -16s-28.333 5.33301 -39 16s-16 23.667 -16 39z" />
    <glyph glyph-name="oslash" unicode="&#xf8;" 
d="M276 469c-9.33301 8.66699 -19.3311 14.833 -29.998 18.5s-21.667 5.5 -33 5.5c-16.667 0 -32.334 -3.83301 -47.001 -11.5s-27.334 -20.5 -38.001 -38.5s-19 -41.5 -25 -70.5s-9 -64.5 -9 -106.5c0 -38 2.33301 -70.5 7 -97.5s11.667 -49.5 21 -67.5zM150.002 62.999
c9.33301 -9.33301 19.3311 -15.833 29.998 -19.5s21.667 -5.5 33 -5.5c16.667 0 32.334 3.83301 47.001 11.5s27.334 20.5 38.001 38.5s19 41.5 25 70.5s9 64.833 9 107.5c0 38 -2.33301 70.5 -7 97.5s-11.667 49.167 -21 66.5zM63 -40.001l32 76
c-21.333 22 -37.5 52.167 -48.5 90.5s-16.5 84.833 -16.5 139.5c0 92.667 15.833 162 47.5 208s76.834 69 135.501 69c33.333 0 61.666 -7.33301 84.999 -22l27 65l38 -16l-32 -75c21.333 -22 37.5 -52.167 48.5 -90.5s16.5 -84.5 16.5 -138.5
c0 -93.333 -15.833 -163 -47.5 -209s-76.834 -69 -135.501 -69c-33.333 0 -61.666 7.66699 -84.999 23l-28 -66z" />
    <glyph glyph-name="ugrave" unicode="&#xf9;" horiz-adv-x="444" 
d="M58 531h60v-374c0 -43.333 7.33301 -74 22 -92s38 -27 70 -27c34 0 61.833 12.333 83.5 37s32.5 57.667 32.5 99v357h60v-531h-54v74h-2c-15.333 -30 -35 -51.833 -59 -65.5s-49.667 -20.5 -77 -20.5c-40.667 0 -73.5 11.167 -98.5 33.5s-37.5 58.5 -37.5 108.5v401z
M190 738l75 -141h-48l-98 141h71z" />
    <glyph glyph-name="uacute" unicode="&#xfa;" horiz-adv-x="444" 
d="M58 531h60v-374c0 -43.333 7.33301 -74 22 -92s38 -27 70 -27c34 0 61.833 12.333 83.5 37s32.5 57.667 32.5 99v357h60v-531h-54v74h-2c-15.333 -30 -35 -51.833 -59 -65.5s-49.667 -20.5 -77 -20.5c-40.667 0 -73.5 11.167 -98.5 33.5s-37.5 58.5 -37.5 108.5v401z
M325 738l-98 -141h-48l75 141h71z" />
    <glyph glyph-name="ucircumflex" unicode="&#xfb;" horiz-adv-x="444" 
d="M58 531h60v-374c0 -43.333 7.33301 -74 22 -92s38 -27 70 -27c34 0 61.833 12.333 83.5 37s32.5 57.667 32.5 99v357h60v-531h-54v74h-2c-15.333 -30 -35 -51.833 -59 -65.5s-49.667 -20.5 -77 -20.5c-40.667 0 -73.5 11.167 -98.5 33.5s-37.5 58.5 -37.5 108.5v401z
M96 597l96 141h60l96 -141h-60l-66 100l-66 -100h-60z" />
    <glyph glyph-name="udieresis" unicode="&#xfc;" horiz-adv-x="444" 
d="M58 531h60v-374c0 -43.333 7.33301 -74 22 -92s38 -27 70 -27c34 0 61.833 12.333 83.5 37s32.5 57.667 32.5 99v357h60v-531h-54v74h-2c-15.333 -30 -35 -51.833 -59 -65.5s-49.667 -20.5 -77 -20.5c-40.667 0 -73.5 11.167 -98.5 33.5s-37.5 58.5 -37.5 108.5v401z
M117 720h60v-102h-60v102zM267 720h60v-102h-60v102z" />
    <glyph glyph-name="yacute" unicode="&#xfd;" horiz-adv-x="370" 
d="M7 531h63.998l119 -460h2l107 460h64l-155 -574c-6.66699 -26 -14 -47.5 -22 -64.5s-17.5 -30.667 -28.5 -41s-23.833 -17.5 -38.5 -21.5s-32 -6 -52 -6c-8 0 -15.167 0.166992 -21.5 0.5s-12.5 0.833008 -18.5 1.5v50c6.66699 -0.666992 13.167 -1.16699 19.5 -1.5
s12.833 -0.5 19.5 -0.5c18.667 0 34.334 4.83301 47.001 14.5s23.334 28.5 32.001 56.5l15 50zM287.998 738l-98 -141h-48l75 141h71z" />
    <glyph glyph-name="thorn" unicode="&#xfe;" horiz-adv-x="444" 
d="M52 714h59.999v-271h2c8 30.667 23.5 55 46.5 73s48.833 27 77.5 27c58.667 0 101.667 -23.167 129 -69.5s41 -115.833 41 -208.5c0 -92 -13.667 -161.167 -41 -207.5s-70.333 -69.5 -129 -69.5c-33.333 0 -60.666 8.33301 -81.999 25s-35.333 39 -42 67h-2v-256h-60v890
zM111.999 265c0 -48.667 3.16699 -88 9.5 -118s14.833 -53 25.5 -69s23 -26.667 37 -32s28.667 -8 44 -8s29.833 2.66699 43.5 8s26 16 37 32s19.667 39 26 69s9.5 69.333 9.5 118c0 49.333 -3.16699 89 -9.5 119s-15 53 -26 69s-23.333 26.667 -37 32s-28.167 8 -43.5 8
s-30 -2.66699 -44 -8s-26.333 -16 -37 -32s-19.167 -39 -25.5 -69s-9.5 -69.667 -9.5 -119z" />
    <glyph glyph-name="ydieresis" unicode="&#xff;" horiz-adv-x="370" 
d="M7 531h63.998l119 -460h2l107 460h64l-155 -574c-6.66699 -26 -14 -47.5 -22 -64.5s-17.5 -30.667 -28.5 -41s-23.833 -17.5 -38.5 -21.5s-32 -6 -52 -6c-8 0 -15.167 0.166992 -21.5 0.5s-12.5 0.833008 -18.5 1.5v50c6.66699 -0.666992 13.167 -1.16699 19.5 -1.5
s12.833 -0.5 19.5 -0.5c18.667 0 34.334 4.83301 47.001 14.5s23.334 28.5 32.001 56.5l15 50zM79.998 720h60v-102h-60v102zM229.998 720h60v-102h-60v102z" />
    <glyph glyph-name="dotlessi" unicode="&#x131;" horiz-adv-x="184" 
d="M62 531h60v-531h-60v531z" />
    <glyph glyph-name="Lslash" unicode="&#x141;" 
d="M56 286l-70 -48v60l70 48v368h64v-324l186 127v-60l-186 -127v-276h296v-54h-360v286z" />
    <glyph glyph-name="lslash" unicode="&#x142;" horiz-adv-x="184" 
d="M62 316l-62 -66v60l62 66v338h60v-274l62 66v-60l-62 -66v-380h-60v316z" />
    <glyph glyph-name="OE" unicode="&#x152;" horiz-adv-x="778" 
d="M410 491c0 35.333 -2.66602 64.499 -7.99902 87.499s-13.833 41.5 -25.5 55.5s-26.334 23.833 -44.001 29.5s-38.5 8.5 -62.5 8.5c-25.333 0 -48.166 -5.5 -68.499 -16.5s-37.5 -29 -51.5 -54s-24.833 -57.5 -32.5 -97.5s-11.5 -89 -11.5 -147s3.83301 -107 11.5 -147
s18.5 -72.5 32.5 -97.5s31.167 -43 51.5 -54s43.166 -16.5 68.499 -16.5c49.333 0 85 14.833 107 44.5s33 79.834 33 150.501v254zM410.001 713.999h339.001v-54h-275v-260h256v-54h-256v-292h284v-54h-348v64h-2c-10.667 -25.333 -28.334 -44.333 -53.001 -57
s-53 -19 -85 -19c-72.667 0 -128.834 29.5 -168.501 88.5s-59.5 152.5 -59.5 280.5s19.833 221.5 59.5 280.5s95.834 88.5 168.501 88.5c38 0 67.5 -6.16699 88.5 -18.5s37.5 -29.5 49.5 -51.5h2v58z" />
    <glyph glyph-name="oe" unicode="&#x153;" horiz-adv-x="704" 
d="M661 176c-3.33301 -60.667 -19.333 -107.166 -48 -139.499s-67 -48.5 -115 -48.5c-28.667 0 -55 7.5 -79 22.5s-43.667 44.167 -59 87.5h-2c-10 -36 -26.833 -63.333 -50.5 -82s-52.5 -28 -86.5 -28c-58.667 0 -103.834 23 -135.501 69s-47.5 115.667 -47.5 209
c0 92.667 15.833 162 47.5 208s76.834 69 135.501 69c34.667 0 64.667 -9 90 -27s43 -46 53 -84h2c9.33301 35.333 25.5 62.666 48.5 81.999s52.833 29 89.5 29c59.333 0 101.166 -22.833 125.499 -68.5s36.5 -116.167 36.5 -211.5h-274v-29
c0 -68 9.83301 -117.667 29.5 -149s44.5 -47 74.5 -47c14.667 0 28.334 3.5 41.001 10.5s23.667 16.5 33 28.5s16.833 26.5 22.5 43.5s8.5 35.5 8.5 55.5h60zM102 266.001c0 -42.667 3 -78.5 9 -107.5s14.333 -52.5 25 -70.5s22.834 -30.833 36.501 -38.5
s28.5 -11.5 44.5 -11.5s30.833 3.83301 44.5 11.5s25.834 20.5 36.501 38.5s19 41.5 25 70.5s9 64.833 9 107.5c0 42 -3 77.5 -9 106.5s-14.333 52.5 -25 70.5s-22.834 30.833 -36.501 38.5s-28.5 11.5 -44.5 11.5s-30.833 -3.83301 -44.5 -11.5
s-25.834 -20.5 -36.501 -38.5s-19 -41.5 -25 -70.5s-9 -64.5 -9 -106.5zM602 313.001c-0.666992 66 -10.5 112.5 -29.5 139.5s-44.167 40.5 -75.5 40.5c-30.667 0 -55.5 -13.5 -74.5 -40.5s-29.167 -73.5 -30.5 -139.5h210z" />
    <glyph glyph-name="Scaron" unicode="&#x160;" horiz-adv-x="480" 
d="M369 531c0 44 -10.3369 78.5029 -31.0039 103.503s-53 37.5 -97 37.5c-43.333 0 -76.666 -12.5 -99.999 -37.5s-35 -55.167 -35 -90.5s8.5 -62.666 25.5 -81.999s38.333 -34.833 64 -46.5s53.5 -21.834 83.5 -30.501s57.833 -20 83.5 -34s47 -32.667 64 -56
s25.5 -56 25.5 -98c0 -68.667 -19.667 -120.667 -59 -156s-91.666 -53 -156.999 -53c-67.333 0 -118.833 17.667 -154.5 53s-53.5 88.333 -53.5 159v21h64v-27c0 -46 11.833 -82.833 35.5 -110.5s59.167 -41.5 106.5 -41.5c45.333 0 82.333 11.667 111 35s43 60 43 110
c0 35.333 -8.5 62.5 -25.5 81.5s-38.333 34.333 -64 46s-53.5 21.667 -83.5 30s-57.833 19.5 -83.5 33.5s-47 33.167 -64 57.5s-25.5 58.166 -25.5 101.499c0 28 4.5 53.667 13.5 77s21.833 43.166 38.5 59.499s37.334 29.166 62.001 38.499s52.334 14 83.001 14
c66.667 0 115.667 -16.5 147 -49.5s47 -81.5 47 -145.5h-64zM172.996 889.003l67 -101l67 101h60l-98 -141h-60l-96 141h60z" />
    <glyph glyph-name="scaron" unicode="&#x161;" horiz-adv-x="389" 
d="M142 264c-38 14.667 -64.499 32.6689 -79.499 54.002s-22.5 45.333 -22.5 72c0 27.333 4 50.666 12 69.999s19 35.166 33 47.499s30.667 21.333 50 27s40.333 8.5 63 8.5c50 0 86.833 -12.5 110.5 -37.5s35.5 -61.833 35.5 -110.5v-15h-60v15
c0 34.667 -7.5 59.667 -22.5 75s-36.5 23 -64.5 23c-35.333 0 -60.333 -8.33301 -75 -25s-22 -38.334 -22 -65.001c0 -18.667 4.5 -35.334 13.5 -50.001s28.5 -27.667 58.5 -39l87 -33c36 -13.333 61.5 -31.833 76.5 -55.5s22.5 -50.167 22.5 -79.5
c0 -45.333 -13.333 -83 -40 -113s-68 -45 -124 -45c-54.667 0 -95.5 12.333 -122.5 37s-40.5 67.334 -40.5 128.001v17h60v-14c0 -78.667 34 -118 102 -118c32 0 57.5 8.33301 76.5 25s28.5 40 28.5 70c0 23.333 -5.33301 42.833 -16 58.5s-29.334 28.834 -56.001 39.501z
M128.001 738.002l67 -101l67 101h60l-98 -141h-60l-96 141h60z" />
    <glyph glyph-name="Ydieresis" unicode="&#x178;" horiz-adv-x="444" 
d="M190 286l-193 428h68l157 -356l157 356h68l-193 -428v-286h-64v286zM117 871h60v-102h-60v102zM267 871h60v-102h-60v102z" />
    <glyph glyph-name="Zcaron" unicode="&#x17d;" horiz-adv-x="462" 
d="M22 60l348 600h-328v54h393v-60l-342 -600h347v-54h-418v60zM164 889l67 -101l67 101h60l-98 -141h-60l-96 141h60z" />
    <glyph glyph-name="zcaron" unicode="&#x17e;" horiz-adv-x="352" 
d="M18 50l252 431h-239v50h303v-50l-252 -431h252v-50h-316v50zM109 738l67 -101l67 101h60l-98 -141h-60l-96 141h60z" />
    <glyph glyph-name="florin" unicode="&#x192;" horiz-adv-x="480" 
d="M120 441l105.002 -0.000976562l26 130c6 31.333 15 56.5 27 75.5s25.5 33.5 40.5 43.5s30.5 16.5 46.5 19.5s31.333 4.5 46 4.5c7.33301 0 14.833 -0.333008 22.5 -1s15.834 -1.66699 24.501 -3l-11 -50c-4.66699 1.33301 -9.16699 2.33301 -13.5 3s-8.83301 1 -13.5 1
c-14.667 0 -28 -1.33301 -40 -4s-23 -9 -33 -19s-19 -24.833 -27 -44.5s-15 -46.5 -21 -80.5l-14 -75h112l-8 -44h-112l-73 -382c-6.66699 -35.333 -14.334 -65.166 -23.001 -89.499s-19.334 -44 -32.001 -59s-27.834 -25.833 -45.501 -32.5s-38.834 -10 -63.501 -10
c-10.667 0 -20.5 0.5 -29.5 1.5s-16.833 2.83301 -23.5 5.5l11 50c4.66699 -2 9.5 -3.66699 14.5 -5s11.167 -2 18.5 -2c16 0 29.833 1.66699 41.5 5s21.834 10.5 30.501 21.5s16.5 27.333 23.5 49s13.833 50.5 20.5 86.5l70 361h-105z" />
    <glyph glyph-name="circumflex" unicode="&#x2c6;" horiz-adv-x="186" 
d="M-33 597l96 141h60l96 -141h-60l-66 100l-66 -100h-60z" />
    <glyph glyph-name="caron" unicode="&#x2c7;" horiz-adv-x="186" 
d="M26 738l67 -101l67 101h60l-98 -141h-60l-96 141h60z" />
    <glyph glyph-name="uni02C9" unicode="&#x2c9;" horiz-adv-x="186" 
d="M-26 690h238v-44h-238v44z" />
    <glyph glyph-name="breve" unicode="&#x2d8;" horiz-adv-x="186" 
d="M16 726c1.33301 -12.667 4.33203 -23.667 8.99902 -33s10.334 -17.666 17.001 -24.999c13.333 -13.333 30.333 -20 51 -20c20 0 37 6.66699 51 20s22.667 32.666 26 57.999h44c-2.66699 -38 -15 -67.833 -37 -89.5s-50 -32.5 -84 -32.5s-62 10.833 -84 32.5
s-34.333 51.5 -37 89.5h44z" />
    <glyph glyph-name="dotaccent" unicode="&#x2d9;" horiz-adv-x="186" 
d="M63 720h60v-102h-60v102z" />
    <glyph glyph-name="ring" unicode="&#x2da;" horiz-adv-x="186" 
d="M-2 681c0 13.333 2.5 25.666 7.5 36.999s11.833 21.333 20.5 30s18.834 15.5 30.501 20.5s23.834 7.5 36.501 7.5c13.333 0 25.666 -2.5 36.999 -7.5s21.333 -11.833 30 -20.5s15.5 -18.667 20.5 -30s7.5 -23.666 7.5 -36.999c0 -12.667 -2.5 -24.834 -7.5 -36.501
s-11.833 -21.834 -20.5 -30.501s-18.667 -15.5 -30 -20.5s-23.666 -7.5 -36.999 -7.5c-12.667 0 -24.834 2.5 -36.501 7.5s-21.834 11.833 -30.501 20.5s-15.5 18.834 -20.5 30.501s-7.5 23.834 -7.5 36.501zM34 681c0 -16.667 5.66699 -30.667 17 -42s25.333 -17 42 -17
s30.667 5.66699 42 17s17 25.333 17 42s-5.66699 30.667 -17 42s-25.333 17 -42 17s-30.667 -5.66699 -42 -17s-17 -25.333 -17 -42z" />
    <glyph glyph-name="ogonek" unicode="&#x2db;" horiz-adv-x="186" 
d="M163 6c-36 -24.667 -61.002 -47 -75.002 -67s-21 -40 -21 -60c0 -31.333 18.333 -47 55 -47c18 0 37.667 6.33301 59 19l13 -29c-11.333 -7.33301 -25.166 -13.5 -41.499 -18.5s-33.166 -7.5 -50.499 -7.5c-33.333 0 -56.5 7.33301 -69.5 22s-19.5 31.334 -19.5 50.001
c0 25.333 8.33301 50.666 25 75.999s42.667 46 78 62h47z" />
    <glyph glyph-name="tilde" unicode="&#x2dc;" horiz-adv-x="186" 
d="M227 718c0 -10 -1.83398 -20.8311 -5.50098 -32.498s-8.83398 -22.334 -15.501 -32.001s-14.667 -17.667 -24 -24s-20 -9.5 -32 -9.5c-9.33301 0 -17.666 1.16699 -24.999 3.5s-15.333 6.16602 -24 11.499l-38 21c-10.667 5.33301 -18.667 8 -24 8
c-9.33301 0 -17.166 -5.16699 -23.499 -15.5s-10.5 -21.166 -12.5 -32.499h-44c0.666992 10.667 3 21.667 7 33s9.33301 21.833 16 31.5s14.5 17.667 23.5 24s18.833 9.5 29.5 9.5c11.333 0 20.833 -1.33301 28.5 -4s17.167 -7.33398 28.5 -14.001l26 -15
c5.33301 -3.33301 10.5 -6 15.5 -8s9.83301 -3 14.5 -3c5.33301 0 10.333 1.66699 15 5s8.5 7.5 11.5 12.5s5.16699 10.333 6.5 16s2 10.5 2 14.5h44z" />
    <glyph glyph-name="hungarumlaut" unicode="&#x2dd;" horiz-adv-x="186" 
d="M120 738l-98 -141h-47l74 141h71zM271 738l-98 -141h-47l74 141h71z" />
    <glyph glyph-name="uni03A9" unicode="&#x3a9;" horiz-adv-x="622" 
d="M178 52c-16 16.667 -31.3369 36.1699 -46.0039 58.5029s-27.5 47 -38.5 74s-19.833 56.333 -26.5 88s-10 65.167 -10 100.5c0 51.333 6.66699 97.333 20 138s31.5 75.5 54.5 104.5s50.167 51.167 81.5 66.5s65 23 101 23c37.333 0 71.333 -8.5 102 -25.5
s56.834 -40.167 78.501 -69.5s38.5 -64 50.5 -104s18 -83 18 -129c0 -36.667 -3.5 -71.5 -10.5 -104.5s-16.167 -63.333 -27.5 -91s-24.166 -52.334 -38.499 -74.001s-29.166 -40.167 -44.499 -55.5v-3h133v-49h-202v36c17.333 14 34 32 50 54s30.333 47 43 75
s22.667 58.833 30 92.5s11 69.5 11 107.5c0 32.667 -4 66.167 -12 100.5s-20 65.5 -36 93.5s-36.167 51 -60.5 69s-52.833 27 -85.5 27c-30.667 0 -58.334 -7.5 -83.001 -22.5s-45.667 -35.5 -63 -61.5s-30.666 -56.667 -39.999 -92s-14 -73.333 -14 -114
c0 -36 3.83301 -70.833 11.5 -104.5s17.834 -64.834 30.501 -93.501s27.167 -54.334 43.5 -77.001s32.833 -40.667 49.5 -54v-36h-202v49h132v3z" />
    <glyph glyph-name="uni03BC" unicode="&#x3bc;" horiz-adv-x="444" 
d="M58 531l59.998 -0.000976562v-374c0 -43.333 7.33301 -74 22 -92s38 -27 70 -27c34 0 61.833 12.333 83.5 37s32.5 57.667 32.5 99v357h60v-531h-54v74h-2c-15.333 -30 -35 -51.833 -59 -65.5s-49.667 -20.5 -77 -20.5c-17.333 0 -32.666 1.83301 -45.999 5.5
s-22.666 9.83398 -27.999 18.501h-2v-188h-60v707z" />
    <glyph glyph-name="pi" unicode="&#x3c0;" horiz-adv-x="491" 
d="M394 465l-0.00585938 -323.997c0 -40.667 1.33301 -71.334 4 -92.001s5.66699 -37 9 -49h-53c-4 7.33301 -7.5 21.666 -10.5 42.999s-4.5 52 -4.5 92v330h-165c-1.33301 -34 -3.83301 -73 -7.5 -117s-8.5 -87.833 -14.5 -131.5s-12.667 -84.834 -20 -123.501
s-15.333 -69.667 -24 -93h-54c8.66699 26.667 16.834 59.167 24.501 97.5s14.334 78.833 20.001 121.5s10.334 85.5 14.001 128.5s5.83398 82.167 6.50098 117.5c-28.667 0 -50 -1.16699 -64 -3.5s-25.333 -5.16602 -34 -8.49902l-10 38
c10.667 7.33301 25.334 13.166 44.001 17.499s44.334 6.5 77.001 6.5h339l-6 -50h-71z" />
    <glyph glyph-name="uni2010" unicode="&#x2010;" horiz-adv-x="333" 
d="M275 311v-54h-217v54h217z" />
    <glyph glyph-name="endash" unicode="&#x2013;" horiz-adv-x="500" 
d="M500 311v-54h-500v54h500z" />
    <glyph glyph-name="emdash" unicode="&#x2014;" horiz-adv-x="1000" 
d="M1000 311v-54h-1000v54h1000z" />
    <glyph glyph-name="quoteleft" unicode="&#x2018;" horiz-adv-x="240" 
d="M83 576c0 14.667 1.00098 29.001 3.00098 43.001s5.66699 27.167 11 39.5s12.833 23.166 22.5 32.499s22.167 17 37.5 23v-40c-13.333 -8 -22.333 -19.5 -27 -34.5s-7.33398 -36.167 -8.00098 -63.5h29v-102h-68v102z" />
    <glyph glyph-name="quoteright" unicode="&#x2019;" horiz-adv-x="240" 
d="M89 714l67.999 -0.000976562v-102c0 -14.667 -1 -29 -3 -43s-5.66699 -27.167 -11 -39.5s-12.833 -23.166 -22.5 -32.499s-22.167 -17 -37.5 -23v40c13.333 8 22.333 19.5 27 34.5s7.33398 36.167 8.00098 63.5h-29v102z" />
    <glyph glyph-name="quotesinglbase" unicode="&#x201a;" horiz-adv-x="240" 
d="M89 102l67.999 -0.000976562v-102c0 -14.667 -1 -29 -3 -43s-5.66699 -27.167 -11 -39.5s-12.833 -23.166 -22.5 -32.499s-22.167 -17 -37.5 -23v40c13.333 8 22.333 19.5 27 34.5s7.33398 36.167 8.00098 63.5h-29v102z" />
    <glyph glyph-name="quotedblleft" unicode="&#x201c;" horiz-adv-x="352" 
d="M205 576c0 14.667 1.00098 29.001 3.00098 43.001s5.66699 27.167 11 39.5s12.833 23.166 22.5 32.499s22.167 17 37.5 23v-40c-13.333 -8 -22.333 -19.5 -27 -34.5s-7.33398 -36.167 -8.00098 -63.5h29v-102h-68v102zM73.001 576.001
c0 14.667 1.00098 29.001 3.00098 43.001s5.66699 27.167 11 39.5s12.833 23.166 22.5 32.499s22.167 17 37.5 23v-40c-13.333 -8 -22.333 -19.5 -27 -34.5s-7.33398 -36.167 -8.00098 -63.5h29v-102h-68v102z" />
    <glyph glyph-name="quotedblright" unicode="&#x201d;" horiz-adv-x="352" 
d="M79 714l67.999 -0.000976562v-102c0 -14.667 -1 -29 -3 -43s-5.66699 -27.167 -11 -39.5s-12.833 -23.166 -22.5 -32.499s-22.167 -17 -37.5 -23v40c13.333 8 22.333 19.5 27 34.5s7.33398 36.167 8.00098 63.5h-29v102zM210.999 713.999l67.999 -0.000976562v-102
c0 -14.667 -1 -29 -3 -43s-5.66699 -27.167 -11 -39.5s-12.833 -23.166 -22.5 -32.499s-22.167 -17 -37.5 -23v40c13.333 8 22.333 19.5 27 34.5s7.33398 36.167 8.00098 63.5h-29v102z" />
    <glyph glyph-name="quotedblbase" unicode="&#x201e;" horiz-adv-x="352" 
d="M79 102l67.999 -0.000976562v-102c0 -14.667 -1 -29 -3 -43s-5.66699 -27.167 -11 -39.5s-12.833 -23.166 -22.5 -32.499s-22.167 -17 -37.5 -23v40c13.333 8 22.333 19.5 27 34.5s7.33398 36.167 8.00098 63.5h-29v102zM210.999 101.999l67.999 -0.000976562v-102
c0 -14.667 -1 -29 -3 -43s-5.66699 -27.167 -11 -39.5s-12.833 -23.166 -22.5 -32.499s-22.167 -17 -37.5 -23v40c13.333 8 22.333 19.5 27 34.5s7.33398 36.167 8.00098 63.5h-29v102z" />
    <glyph glyph-name="dagger" unicode="&#x2020;" horiz-adv-x="480" 
d="M210 714h60v-224h176v-50h-176v-585h-60v585h-176v50h176v224z" />
    <glyph glyph-name="daggerdbl" unicode="&#x2021;" horiz-adv-x="480" 
d="M270 714v-206h176v-50h-176v-347h176v-50h-176v-206h-60v206h-176v50h176v347h-176v50h176v206h60z" />
    <glyph glyph-name="bullet" unicode="&#x2022;" horiz-adv-x="500" 
d="M72 357c0 24.667 4.66699 47.834 14 69.501s22 40.5 38 56.5s34.833 28.667 56.5 38s44.834 14 69.501 14s47.834 -4.66699 69.501 -14s40.5 -22 56.5 -38s28.667 -34.833 38 -56.5s14 -44.834 14 -69.501s-4.66699 -47.834 -14 -69.501s-22 -40.5 -38 -56.5
s-34.833 -28.667 -56.5 -38s-44.834 -14 -69.501 -14s-47.834 4.66699 -69.501 14s-40.5 22 -56.5 38s-28.667 34.833 -38 56.5s-14 44.834 -14 69.501z" />
    <glyph glyph-name="ellipsis" unicode="&#x2026;" horiz-adv-x="1000" 
d="M133 102h68v-102h-68v102zM466 102h68v-102h-68v102zM799 102h68v-102h-68v102z" />
    <glyph glyph-name="perthousand" unicode="&#x2030;" horiz-adv-x="1000" 
d="M107 524c0 -53.333 6.83301 -90 20.5 -110s30.834 -30 51.501 -30c21.333 0 38.666 10 51.999 30s20 56.667 20 110s-6.66699 90 -20 110s-30.666 30 -51.999 30c-20.667 0 -37.834 -10 -51.501 -30s-20.5 -56.667 -20.5 -110zM480 708h50l-307 -720h-50zM448 172
c0 -53.333 6.83301 -90 20.5 -110s30.834 -30 51.501 -30c21.333 0 38.666 10 51.999 30s20 56.667 20 110s-6.66699 90 -20 110s-30.666 30 -51.999 30c-20.667 0 -37.834 -10 -51.501 -30s-20.5 -56.667 -20.5 -110zM53 524c0 36 2.83301 65.833 8.5 89.5
s13.834 42.5 24.501 56.5s23.834 23.833 39.501 29.5s33.5 8.5 53.5 8.5s37.833 -2.83301 53.5 -8.5s28.834 -15.5 39.501 -29.5s18.834 -32.833 24.501 -56.5s8.5 -53.5 8.5 -89.5s-2.83301 -65.833 -8.5 -89.5s-13.834 -42.5 -24.501 -56.5s-23.834 -23.833 -39.501 -29.5
s-33.5 -8.5 -53.5 -8.5s-37.833 2.83301 -53.5 8.5s-28.834 15.5 -39.501 29.5s-18.834 32.833 -24.501 56.5s-8.5 53.5 -8.5 89.5zM394 172c0 36 2.83301 65.833 8.5 89.5s13.834 42.5 24.501 56.5s23.834 23.833 39.501 29.5s33.5 8.5 53.5 8.5s37.833 -2.83301 53.5 -8.5
s28.834 -15.5 39.501 -29.5s18.834 -32.833 24.501 -56.5s8.5 -53.5 8.5 -89.5s-2.83301 -65.833 -8.5 -89.5s-13.834 -42.5 -24.501 -56.5s-23.834 -23.833 -39.501 -29.5s-33.5 -8.5 -53.5 -8.5s-37.833 2.83301 -53.5 8.5s-28.834 15.5 -39.501 29.5
s-18.834 32.833 -24.501 56.5s-8.5 53.5 -8.5 89.5zM749 172c0 -53.333 6.83301 -90 20.5 -110s30.834 -30 51.501 -30c21.333 0 38.666 10 51.999 30s20 56.667 20 110s-6.66699 90 -20 110s-30.666 30 -51.999 30c-20.667 0 -37.834 -10 -51.501 -30
s-20.5 -56.667 -20.5 -110zM695 172c0 36 2.83301 65.833 8.5 89.5s13.834 42.5 24.501 56.5s23.834 23.833 39.501 29.5s33.5 8.5 53.5 8.5s37.833 -2.83301 53.5 -8.5s28.834 -15.5 39.501 -29.5s18.834 -32.833 24.501 -56.5s8.5 -53.5 8.5 -89.5
s-2.83301 -65.833 -8.5 -89.5s-13.834 -42.5 -24.501 -56.5s-23.834 -23.833 -39.501 -29.5s-33.5 -8.5 -53.5 -8.5s-37.833 2.83301 -53.5 8.5s-28.834 15.5 -39.501 29.5s-18.834 32.833 -24.501 56.5s-8.5 53.5 -8.5 89.5z" />
    <glyph glyph-name="guilsinglleft" unicode="&#x2039;" horiz-adv-x="241" 
d="M58 314l125 139v-68l-89 -101l89 -101v-68l-125 139v60z" />
    <glyph glyph-name="guilsinglright" unicode="&#x203a;" horiz-adv-x="241" 
d="M58 183l89 101l-89 101v68l125 -139v-60l-125 -139v68z" />
    <glyph glyph-name="fraction" unicode="&#x2044;" horiz-adv-x="167" 
d="M284 726h50l-451 -756h-50z" />
    <glyph glyph-name="Euro" unicode="&#x20ac;" horiz-adv-x="480" 
d="M453 610c-22 13.333 -43.168 24.4961 -63.501 33.4961s-43.833 13.5 -70.5 13.5c-30 0 -55 -6 -75 -18s-36.167 -27.833 -48.5 -47.5s-21.5 -41.834 -27.5 -66.501s-10.333 -49.667 -13 -75h257l-18 -54h-243c-0.666992 -5.33301 -1 -10.666 -1 -15.999v-16v-32h229
l-19 -54h-209c2 -27.333 5.5 -55.166 10.5 -83.499s13.5 -54.166 25.5 -77.499s28.5 -42.333 49.5 -57s48.5 -22 82.5 -22c30 0 55 6 75 18s40.667 27.333 62 46v-73c-22.667 -15.333 -44.334 -26 -65.001 -32s-45 -9 -73 -9c-45.333 0 -82.5 7.83301 -111.5 23.5
s-52.167 36.834 -69.5 63.501s-30 57.5 -38 92.5s-13.333 71.833 -16 110.5h-69l18 54h49v32v16c0 5.33301 0.333008 10.666 1 15.999h-68l18 54h54c4 36 11 69.667 21 101s24.333 58.833 43 82.5s42.167 42.334 70.5 56.001s62.5 20.5 102.5 20.5
c28.667 0 55.334 -4.16699 80.001 -12.5s49.334 -19.166 74.001 -32.499z" />
    <glyph glyph-name="afii61289" unicode="&#x2113;" horiz-adv-x="421" 
d="M399 105c-17.333 -35.333 -39.168 -62.8369 -65.501 -82.5039s-56.833 -29.5 -91.5 -29.5c-26 0 -47.833 5 -65.5 15s-32.167 23.833 -43.5 41.5s-19.666 38.334 -24.999 62.001s-8.33301 48.834 -9 75.501v14l-25 -22.5l-26 -23.5l-20 34l37 34.5
c12 11 23.333 22.167 34 33.5v277c0 44.667 3.83301 81.834 11.5 111.501s17.667 53.334 30 71.001s26.333 30.167 42 37.5s31.167 11 46.5 11c34.667 0 60.667 -14.333 78 -43s26 -65.334 26 -110.001c0 -63.333 -16.5 -125.333 -49.5 -186s-76.833 -120.667 -131.5 -180
v-34c0 -32 2.66699 -59 8 -81s12.5 -39.833 21.5 -53.5s19.5 -23.5 31.5 -29.5s25 -9 39 -9s27 2.66699 39 8s23 12.333 33 21s19 18.334 27 29.001s14.667 21 20 31zM151.998 307.996c20 24 38.499 48.167 55.499 72.5s32 49.166 45 74.499s23.167 51 30.5 77
s11 52.333 11 79c0 34 -5.16699 60.5 -15.5 79.5s-27.166 28.5 -50.499 28.5c-8.66699 0 -17.667 -3.16699 -27 -9.5s-17.5 -16.666 -24.5 -30.999s-12.833 -33 -17.5 -56s-7 -51.167 -7 -84.5v-230z" />
    <glyph glyph-name="trademark" unicode="&#x2122;" horiz-adv-x="990" 
d="M177 670h-135v44h320v-44h-135v-368h-50v368zM782 714h86v-412h-50v368h-2l-149 -368h-30l-149 368h-2v-368h-50v412h86l132 -334z" />
    <glyph glyph-name="Omega" unicode="&#x2126;" horiz-adv-x="622" 
d="M178 52c-16 16.667 -31.3369 36.1699 -46.0039 58.5029s-27.5 47 -38.5 74s-19.833 56.333 -26.5 88s-10 65.167 -10 100.5c0 51.333 6.66699 97.333 20 138s31.5 75.5 54.5 104.5s50.167 51.167 81.5 66.5s65 23 101 23c37.333 0 71.333 -8.5 102 -25.5
s56.834 -40.167 78.501 -69.5s38.5 -64 50.5 -104s18 -83 18 -129c0 -36.667 -3.5 -71.5 -10.5 -104.5s-16.167 -63.333 -27.5 -91s-24.166 -52.334 -38.499 -74.001s-29.166 -40.167 -44.499 -55.5v-3h133v-49h-202v36c17.333 14 34 32 50 54s30.333 47 43 75
s22.667 58.833 30 92.5s11 69.5 11 107.5c0 32.667 -4 66.167 -12 100.5s-20 65.5 -36 93.5s-36.167 51 -60.5 69s-52.833 27 -85.5 27c-30.667 0 -58.334 -7.5 -83.001 -22.5s-45.667 -35.5 -63 -61.5s-30.666 -56.667 -39.999 -92s-14 -73.333 -14 -114
c0 -36 3.83301 -70.833 11.5 -104.5s17.834 -64.834 30.501 -93.501s27.167 -54.334 43.5 -77.001s32.833 -40.667 49.5 -54v-36h-202v49h132v3z" />
    <glyph glyph-name="estimated" unicode="&#x212e;" horiz-adv-x="868" 
d="M186 338c-3.33301 0 -5 -1.33398 -5 -4.00098v-196c0 -8 2.66699 -15.667 8 -23c32 -32.667 68.833 -58.5 110.5 -77.5s86.5 -28.5 134.5 -28.5c52 0 100 10.833 144 32.5s82 50.5 114 86.5h57c-36 -42 -81.5 -75.667 -136.5 -101s-114.833 -38 -179.5 -38
c-54.667 0 -106.334 9.33301 -155.001 28s-91 44.334 -127 77.001s-64.5 70.667 -85.5 114s-31.5 90 -31.5 140s10.5 96.833 31.5 140.5s49.5 81.667 85.5 114s78.333 58 127 77s100.334 28.5 155.001 28.5c55.333 0 107.333 -9.5 156 -28.5s91 -44.667 127 -77
s64.5 -70.333 85.5 -114s31.5 -90.5 31.5 -140.5v-10h-647zM686 560.999c0 9.33301 -3 17.001 -9 23.001c-32 31.333 -68.5 56.166 -109.5 74.499s-85.5 27.5 -133.5 27.5s-92.667 -9.5 -134 -28.5s-78 -44.5 -110 -76.5c-6 -6.66699 -9 -15 -9 -25v-193
c0 -1.33301 0.5 -2.66602 1.5 -3.99902s2.16699 -2 3.5 -2h496c1.33301 0 2.33301 0.666992 3 2s1 2.66602 1 3.99902v198z" />
    <glyph glyph-name="partialdiff" unicode="&#x2202;" horiz-adv-x="473" 
d="M69 725c15.333 13.333 34.333 25.502 57 36.502s51 16.5 85 16.5c27.333 0 54 -7 80 -21s49.167 -36.167 69.5 -66.5s36.666 -69 48.999 -116s18.5 -103.5 18.5 -169.5c0 -61.333 -4.83301 -117.333 -14.5 -168s-23.834 -94 -42.501 -130s-42 -64 -70 -84
s-60.333 -30 -97 -30c-27.333 0 -51.166 6 -71.499 18s-37.333 28.167 -51 48.5s-24 44.166 -31 71.499s-10.5 56.333 -10.5 87c0 38.667 5.16699 73.667 15.5 105s24.333 58 42 80s37.834 39 60.501 51s46 18 70 18c20 0 38 -3.16699 54 -9.5s30 -14 42 -23
s22 -18.5 30 -28.5s14 -19 18 -27h1c0.666992 5.33301 1 12.166 1 20.499v21.5c0 46 -4.5 87.5 -13.5 124.5s-21.167 68.833 -36.5 95.5s-33.166 47.167 -53.499 61.5s-41.833 21.5 -64.5 21.5c-27.333 0 -50.333 -5 -69 -15s-34.334 -20.667 -47.001 -32zM209 41.002
c22 0 41.998 7.33398 59.998 22.001s33.667 34.5 47 59.5s24.333 54.333 33 88s14.334 69.167 17.001 106.5c-4 12 -9.83301 24.333 -17.5 37s-17 24.167 -28 34.5s-23.667 18.833 -38 25.5s-30.166 10 -47.499 10c-18.667 0 -36.5 -5.33301 -53.5 -16
s-32 -25.334 -45 -44.001s-23.167 -40.5 -30.5 -65.5s-11 -51.5 -11 -79.5c0 -54 10.167 -97.167 30.5 -129.5s47.833 -48.5 82.5 -48.5h1z" />
    <glyph glyph-name="Delta" unicode="&#x2206;" horiz-adv-x="560" 
d="M30 41l221 671h62l218 -670v-42h-501v41zM472 47l-133 407.001c-4 13.333 -8.83301 28 -14.5 44l-16.5 48.5l-15.5 47.5c-5 15.333 -8.83301 29 -11.5 41h-4c-2 -10.667 -5.16699 -22.834 -9.5 -36.501l-14 -43l-15 -45.5l-13.5 -43l-140 -420h387z" />
    <glyph glyph-name="product" unicode="&#x220f;" horiz-adv-x="605" 
d="M485 641v-737h-54v737h-258v-737h-54v737h-95v53h556v-53h-95z" />
    <glyph glyph-name="summation" unicode="&#x2211;" horiz-adv-x="485" 
d="M21 -96v40l243 354l-231 355v41h415v-50h-339v-3l218 -335l-236 -343v-4h373v-55h-443z" />
    <glyph glyph-name="minus" unicode="&#x2212;" horiz-adv-x="600" 
d="M47 278h506v-50h-506v50z" />
    <glyph glyph-name="uni2215" unicode="&#x2215;" horiz-adv-x="167" 
d="M284 726h50l-451 -756h-50z" />
    <glyph glyph-name="uni2219" unicode="&#x2219;" horiz-adv-x="240" 
d="M65 328c0 15.333 5.33301 28.333 16 39s23.667 16 39 16s28.333 -5.33301 39 -16s16 -23.667 16 -39s-5.33301 -28.333 -16 -39s-23.667 -16 -39 -16s-28.333 5.33301 -39 16s-16 23.667 -16 39z" />
    <glyph glyph-name="radical" unicode="&#x221a;" horiz-adv-x="505" 
d="M305 -152h-51l-145 470l-66 -24l-12 37l115 43l117 -374l8.5 -38.5c3 -13.667 5.16699 -25.167 6.5 -34.5h1c1.33301 9.33301 3 20.333 5 33l6 38l167 826h43z" />
    <glyph glyph-name="infinity" unicode="&#x221e;" horiz-adv-x="706" 
d="M660 289c0 -21.333 -3.83008 -40.834 -11.4971 -58.501s-17.834 -32.667 -30.501 -45s-27.334 -21.833 -44.001 -28.5s-34 -10 -52 -10c-29.333 0 -56.5 9.16699 -81.5 27.5s-53.833 45.5 -86.5 81.5l-37 -39.5c-12.667 -13 -26 -24.667 -40 -35
s-28.833 -18.666 -44.5 -24.999s-32.834 -9.5 -51.501 -9.5s-36.167 3.66699 -52.5 11s-30.666 17.166 -42.999 29.499s-22 27 -29 44s-10.5 35.167 -10.5 54.5c0 20 3.5 38.667 10.5 56s16.833 32.333 29.5 45s27.5 22.667 44.5 30s35.833 11 56.5 11
c17.333 0 33.666 -3.16699 48.999 -9.5s30 -14.666 44 -24.999s27.333 -22.166 40 -35.499s25 -27 37 -41c12 14 24.167 27.5 36.5 40.5s25.333 24.833 39 35.5s28.5 19.167 44.5 25.5s33.333 9.5 52 9.5c40 0 71.833 -12.833 95.5 -38.5s35.5 -58.834 35.5 -99.501v-1z
M187.003 184.999c15.333 0 29.498 3.33301 42.498 10s25.5 15 37.5 25s23.333 20.833 34 32.5l31 32.5l-31.5 38c-11 12.667 -22.667 24 -35 34s-25.5 18.167 -39.5 24.5s-29.333 9.5 -46 9.5c-29.333 0 -52.166 -10.667 -68.499 -32s-24.166 -46 -23.499 -74
c0 -28 8.83301 -51.667 26.5 -71s41.5 -29 71.5 -29h1zM524.001 390.999c-16 0 -31.002 -3.83203 -45.002 -11.499s-27.167 -16.834 -39.5 -27.501s-23.666 -22 -33.999 -34s-19.5 -22 -27.5 -30c31.333 -32.667 57.5 -58 78.5 -76s44.167 -27 69.5 -27
c14.667 0 27.834 3 39.501 9s21.5 13.667 29.5 23s14 20 18 32s6 24.333 6 37c0 34 -9 60 -27 78s-40.333 27 -67 27h-1z" />
    <glyph glyph-name="integral" unicode="&#x222b;" horiz-adv-x="316" 
d="M289 792c-4 2.66699 -9.00098 4.83594 -15.001 6.50293s-11.667 2.5 -17 2.5c-7.33301 0 -15.333 -1.83301 -24 -5.5s-16 -9.83398 -22 -18.501c-11.333 -15.333 -19.333 -36.666 -24 -63.999s-7 -66 -7 -116c0 -38.667 0.5 -79.334 1.5 -122.001s2.33301 -86 4 -130
s3 -87.667 4 -131s1.5 -84.666 1.5 -123.999c0 -56 -4 -99.333 -12 -130s-17.667 -54.667 -29 -72c-9.33301 -14.667 -21.333 -25.667 -36 -33s-30.334 -11 -47.001 -11c-10.667 0 -21 1.66699 -31 5s-17.667 6.66602 -23 9.99902l12 42l15.5 -6
c7 -2.66699 14.833 -4 23.5 -4c18 0 32.333 8 43 24c8.66699 12.667 16 32.167 22 58.5s9 65.166 9 116.499c0 40 -0.5 82 -1.5 126s-2.33301 88.167 -4 132.5s-3 88.166 -4 131.499s-1.5 84 -1.5 122c0 54 3.33301 97 10 129s18.667 57.667 36 77
c10.667 12 23 21.167 37 27.5s28.667 9.5 44 9.5c8.66699 0 17.334 -1.33301 26.001 -4s15.334 -5.66699 20.001 -9z" />
    <glyph glyph-name="approxequal" unicode="&#x2248;" horiz-adv-x="501" 
d="M459 392c-11.333 -24 -26.1699 -44.668 -44.5029 -62.001s-41.5 -26 -69.5 -26c-18 0 -34.5 3.5 -49.5 10.5s-33.167 16.5 -54.5 28.5c-14.667 8.66699 -28.667 16 -42 22s-27.666 9 -42.999 9c-20.667 0 -37.667 -6.66699 -51 -20s-25.666 -29.666 -36.999 -48.999
l-27 20c13.333 28 30.5 49.5 51.5 64.5s44.167 22.5 69.5 22.5c22 0 41.5 -4.66699 58.5 -14l43.5 -24c15.333 -8.66699 29.166 -16.167 41.499 -22.5s26.5 -9.5 42.5 -9.5c18.667 0 34.334 5.83301 47.001 17.5s25.334 29.167 38.001 52.5zM458.996 240.999
c-11.333 -24 -26.166 -44.501 -44.499 -61.501s-41.5 -25.5 -69.5 -25.5c-18 0 -34.5 3.33301 -49.5 10s-33.167 16 -54.5 28c-14.667 8.66699 -28.667 16.167 -42 22.5s-27.333 9.5 -42 9.5c-21.333 0 -38.833 -7 -52.5 -21s-25.834 -30.333 -36.501 -49l-27 20
c13.333 28 30.5 49.667 51.5 65s44.167 23 69.5 23c22 0 41.333 -4.66699 58 -14l44 -24c15.333 -8.66699 29.166 -16.167 41.499 -22.5s26.833 -9.5 43.5 -9.5c18 0 33.333 5.83301 46 17.5s25.334 28.834 38.001 51.501z" />
    <glyph glyph-name="notequal" unicode="&#x2260;" horiz-adv-x="501" 
d="M312 389h141v-40h-157l-61 -134h218v-39h-234l-48 -106l-31 14l41 92h-135v39h152l60 134h-212v40h228l47 104l32 -14z" />
    <glyph glyph-name="lessequal" unicode="&#x2264;" horiz-adv-x="501" 
d="M51 316v40l400 210v-49l-356 -179v-2l356 -181v-49zM47 25v41h407v-41h-407z" />
    <glyph glyph-name="greaterequal" unicode="&#x2265;" horiz-adv-x="501" 
d="M452 356v-40l-400 -210v49l356 180v2l-356 180v49zM47 25v41h406v-41h-406z" />
    <glyph glyph-name="lozenge" unicode="&#x25ca;" horiz-adv-x="506" 
d="M275 -38h-46l-179 385l180 385h47l178 -385zM270 628c-3.33301 8 -6.49902 16.833 -9.49902 26.5s-5.5 18.167 -7.5 25.5h-2l-7 -24.5c-2.66699 -9 -6 -18.167 -10 -27.5l-132 -280l134 -284c4 -10 7.16699 -19.5 9.5 -28.5s4.16602 -16.5 5.49902 -22.5h4
c1.33301 6 3.33301 14 6 24s5.66699 18.667 9 26l133 282z" />
    <glyph glyph-name="fi" unicode="&#xfb01;" 
d="M304 531h60v-531h-60v531zM304 714h60v-102h-60v102zM80 481l-72.9961 -0.000976562v50h73v63c0 18 1.33301 34.833 4 50.5s8 29.334 16 41.001s19.667 20.667 35 27s35.666 9.5 60.999 9.5c9.33301 0 16.666 -0.166992 21.999 -0.5s10.666 -1.16602 15.999 -2.49902v-50
c-8.66699 2 -18.334 3 -29.001 3c-22 0 -38.333 -5.33301 -49 -16s-16 -31.334 -16 -62.001v-63h94v-50h-94v-481h-60v481z" />
    <glyph glyph-name="fl" unicode="&#xfb02;" 
d="M304 714h60v-714h-60v714zM80 481l-72.9961 -0.000976562v50h73v63c0 18 1.33301 34.833 4 50.5s8 29.334 16 41.001s19.667 20.667 35 27s35.666 9.5 60.999 9.5c9.33301 0 16.666 -0.166992 21.999 -0.5s10.666 -1.16602 15.999 -2.49902v-50
c-8.66699 2 -18.334 3 -29.001 3c-22 0 -38.333 -5.33301 -49 -16s-16 -31.334 -16 -62.001v-63h94v-50h-94v-481h-60v481z" />
    <glyph glyph-name="a.superior" horiz-adv-x="277" 
d="M15 602c0 34.667 8.99707 61.001 26.9971 79.001s48 27 90 27s70.667 -7.83301 86 -23.5s23 -36.167 23 -61.5v-185c0 -18 6.66699 -27 20 -27h11v-38c-8.66699 -4 -20 -6 -34 -6c-12 0 -22.5 2.5 -31.5 7.5s-13.5 15.833 -13.5 32.5v14h-2
c-7.33301 -21.333 -19.166 -35.666 -35.499 -42.999s-34.166 -11 -53.499 -11c-33.333 0 -57.833 9.16699 -73.5 27.5s-23.5 40.5 -23.5 66.5c0 24.667 6.16699 44.834 18.5 60.501s32.5 27.167 60.5 34.5l74 19c13.333 3.33301 22.166 7.66602 26.499 12.999
s6.5 15.666 6.5 30.999s-5.66699 26.666 -17 33.999s-25.666 11 -42.999 11c-23.333 0 -40.166 -5.83301 -50.499 -17.5s-15.5 -26.5 -15.5 -44.5h-50zM190.997 551.001l-2 -0.00195312c-2 -5.33301 -7.5 -9.66602 -16.5 -12.999s-17.167 -6 -24.5 -8l-33 -8
c-37.333 -9.33301 -56 -27.666 -56 -54.999c0 -15.333 4.83301 -28.5 14.5 -39.5s22.167 -16.5 37.5 -16.5c23.333 0 42.5 7.66699 57.5 23s22.5 37 22.5 65v52z" />
    <glyph glyph-name="o.superior" horiz-adv-x="277" 
d="M9 538c0 113.333 43 170 129 170c86.667 0 130 -56.667 130 -170c0 -114 -43.333 -171 -130 -171c-86 0 -129 57 -129 171zM63 538c0 -46 7.33301 -78.667 22 -98s32.334 -29 53.001 -29c21.333 0 39.333 9.66699 54 29s22 52 22 98s-7.33301 78.5 -22 97.5
s-32.667 28.5 -54 28.5c-20.667 0 -38.334 -9.5 -53.001 -28.5s-22 -51.5 -22 -97.5z" />
    <glyph glyph-name="one.superior" horiz-adv-x="312" 
d="M144 600h-107.999v36c40 0.666992 69.167 7.5 87.5 20.5s28.166 30.167 29.499 51.5h45v-428h-54v320z" />
    <glyph glyph-name="three.superior" horiz-adv-x="312" 
d="M119 525l18.001 0.00195312c28 0 49.5 6.5 64.5 19.5s22.5 29.5 22.5 49.5c0 19.333 -6.16699 35.833 -18.5 49.5s-29.5 20.5 -51.5 20.5c-20 0 -37.333 -6.5 -52 -19.5s-22.334 -31.167 -23.001 -54.5h-54c0 36 10.5 64.667 31.5 86s53.5 32 97.5 32
c39.333 0 69.833 -9.33301 91.5 -28s32.5 -44.334 32.5 -77.001c0 -24 -6 -44.833 -18 -62.5s-30.667 -29.167 -56 -34.5v-2c28 -3.33301 49.667 -14.333 65 -33s23 -41.334 23 -68.001c0 -38.667 -11.333 -70 -34 -94s-57.334 -36 -104.001 -36
c-42 0 -74.5 10.333 -97.5 31s-35.167 51 -36.5 91h54c0.666992 -18.667 7.83398 -36.334 21.501 -53.001s33.167 -25 58.5 -25c10 0 20 1.66699 30 5s19 8.5 27 15.5s14.5 15.833 19.5 26.5s7.5 23.334 7.5 38.001c0 24.667 -8.33301 44 -25 58s-39 21 -67 21h-27v44z" />
    <glyph glyph-name="two.superior" horiz-adv-x="312" 
d="M24 573c0.666992 42 11.8359 74.999 33.5029 98.999s56.167 36 103.5 36c17.333 0 33.5 -2.16699 48.5 -6.5s28.167 -11.166 39.5 -20.499s20.333 -21.333 27 -36s10 -32 10 -52c0 -25.333 -4.66699 -47.833 -14 -67.5s-29 -40.834 -59 -63.501l-50 -37
c-24.667 -18 -43.334 -34.833 -56.001 -50.5s-21.334 -32.5 -26.001 -50.5h207v-44h-261c0 37.333 8.33301 68.333 25 93s40.334 49.334 71.001 74.001l49 39c23.333 18 39.166 35 47.499 51s12.5 34 12.5 54c0 25.333 -7.33301 43.833 -22 55.5s-32.334 17.5 -53.001 17.5
c-23.333 0 -42 -7.66699 -56 -23s-21.667 -38 -23 -68h-54z" />
    </font>
</defs>
</svg>
